<svg width="20" height="21" viewBox="0 0 20 21" fill="none" xmlns="http://www.w3.org/2000/svg">
<path d="M17.0846 5.5H2.91797M15.6955 7.58333L15.3121 13.3333C15.1646 15.545 15.0913 16.6508 14.3705 17.325C13.6496 17.9992 12.5405 18 10.3238 18H9.6788C7.46214 18 6.35297 18 5.63214 17.325C4.9113 16.6508 4.83714 15.545 4.69047 13.3333L4.30714 7.58333" stroke="#C83E3E" stroke-width="1.5" stroke-linecap="round"/>
<path d="M5.41797 5.5H5.50964C5.84501 5.49143 6.16999 5.38185 6.44207 5.18559C6.71416 4.98934 6.92068 4.71553 7.03463 4.4L7.06297 4.31417L7.1438 4.07167C7.21297 3.86417 7.24797 3.76083 7.2938 3.6725C7.38398 3.49949 7.51339 3.34999 7.6717 3.23597C7.83001 3.12194 8.0128 3.04655 8.20547 3.01583C8.30297 3 8.41213 3 8.63047 3H11.3721C11.5905 3 11.6996 3 11.7971 3.01583C11.9898 3.04655 12.1726 3.12194 12.3309 3.23597C12.4892 3.34999 12.6186 3.49949 12.7088 3.6725C12.7546 3.76083 12.7896 3.86417 12.8588 4.07167L12.9396 4.31417C13.0452 4.66523 13.2636 4.97167 13.561 5.18605C13.8584 5.40043 14.2182 5.51077 14.5846 5.5" stroke="#C83E3E" stroke-width="1.5"/>
</svg>
