<svg width="276" height="266" viewBox="0 0 276 266" fill="none" xmlns="http://www.w3.org/2000/svg">
<g filter="url(#filter0_d_468_15277)">
<path d="M164.141 32.0422C165.793 30.774 168.203 31.534 168.829 33.5204L180.121 69.3523C180.706 71.206 182.311 72.5533 184.238 72.8067L221.486 77.7041C223.551 77.9756 224.718 80.2167 223.756 82.064L206.404 115.386C205.507 117.109 205.689 119.197 206.873 120.739L229.749 150.541C231.017 152.193 230.257 154.603 228.271 155.229L192.439 166.521C190.585 167.106 189.238 168.711 188.984 170.638L184.087 207.886C183.815 209.951 181.574 211.118 179.727 210.156L146.405 192.804C144.681 191.907 142.594 192.09 141.052 193.273L111.25 216.149C109.598 217.417 107.188 216.657 106.562 214.671L95.2695 178.839C94.6852 176.985 93.0798 175.638 91.1528 175.384L53.9046 170.487C51.8397 170.215 50.673 167.974 51.6349 166.127L68.9866 132.805C69.8843 131.082 69.7014 128.994 68.518 127.452L45.6421 97.6503C44.374 95.9983 45.1339 93.5878 47.1203 92.9618L82.9523 81.6696C84.8059 81.0853 86.1532 79.4799 86.4066 77.5529L91.3041 40.3047C91.5755 38.2398 93.8166 37.0731 95.6639 38.035L128.986 55.3867C130.709 56.2844 132.797 56.1015 134.339 54.9181L164.141 32.0422Z" fill="#E8B040" stroke="#E8B040" stroke-width="2"/>
<path d="M87.7279 97.0094C87.6248 96.4848 87.3966 96.0382 87.0431 95.6695C86.6896 95.3008 86.228 95.0267 85.6583 94.847C85.0275 94.6482 84.4231 94.6142 83.845 94.7451C83.2669 94.876 82.7571 95.1626 82.3157 95.605C81.8742 96.0474 81.5444 96.6145 81.3263 97.3063C81.1018 98.0184 81.0435 98.6823 81.1514 99.2979C81.2695 99.9167 81.5328 100.447 81.9415 100.889C82.3502 101.331 82.8851 101.656 83.5464 101.865C84.3602 102.121 85.0939 102.118 85.7475 101.854C86.4042 101.58 86.9358 101.082 87.3424 100.361L83.6801 99.2059L84.1948 97.5732L89.963 99.3917L89.376 101.253C88.9995 101.951 88.4778 102.542 87.8109 103.025C87.1441 103.508 86.3785 103.826 85.514 103.978C84.6628 104.124 83.7795 104.052 82.8639 103.763C81.8364 103.439 80.9778 102.917 80.2879 102.196C79.6114 101.469 79.164 100.617 78.9457 99.6426C78.7375 98.671 78.7986 97.6613 79.129 96.6135C79.4593 95.5657 79.9884 94.7035 80.7161 94.027C81.4573 93.3436 82.312 92.9029 83.2804 92.7049C84.2621 92.4999 85.2616 92.5578 86.2789 92.8786C87.4793 93.257 88.429 93.8808 89.1281 94.7499C89.8303 95.6088 90.1825 96.6201 90.1846 97.784L87.7279 97.0094ZM98.9259 103.878C98.8297 104.184 98.7227 104.452 98.6051 104.683L92.4249 102.735C92.2834 103.361 92.3462 103.907 92.6136 104.371C92.881 104.836 93.2893 105.155 93.8386 105.328C94.6321 105.578 95.3042 105.415 95.8548 104.839L98.159 105.566C97.6582 106.303 96.9786 106.827 96.1201 107.138C95.2647 107.438 94.3335 107.43 93.3263 107.112C92.5125 106.856 91.8362 106.447 91.2974 105.885C90.7719 105.317 90.4303 104.645 90.2726 103.868C90.125 103.094 90.1875 102.275 90.4601 101.411C90.736 100.536 91.1562 99.8238 91.7207 99.2748C92.2852 98.7259 92.9441 98.3744 93.6972 98.2204C94.4504 98.0664 95.2441 98.1209 96.0782 98.3839C96.8819 98.6373 97.5446 99.0363 98.0663 99.5811C98.5981 100.129 98.936 100.778 99.0798 101.528C99.237 102.271 99.1857 103.054 98.9259 103.878ZM96.9057 102.57C97.0687 102.018 97.0083 101.518 96.7243 101.07C96.4436 100.613 96.0235 100.296 95.4639 100.119C94.9349 99.9527 94.436 99.9744 93.9672 100.184C93.5117 100.388 93.1534 100.761 92.8924 101.305L96.9057 102.57ZM103.694 102.865L102.405 106.955C102.315 107.24 102.315 107.469 102.406 107.643C102.51 107.81 102.725 107.945 103.05 108.047L104.042 108.36L103.474 110.161L102.131 109.737C100.331 109.17 99.7064 108.011 100.258 106.261L101.543 102.187L100.535 101.869L101.089 100.115L102.096 100.432L102.755 98.3415L104.907 99.0199L104.247 101.11L106.14 101.707L105.586 103.462L103.694 102.865ZM111.354 103.418L112.546 101.127L116.773 102.459L111.455 112.677L108.739 111.82L112.865 103.894L111.354 103.418ZM115.983 107.998C116.81 106.402 117.802 105.244 118.957 104.523C120.126 103.796 121.463 103.669 122.969 104.144C124.179 104.526 124.96 105.135 125.311 105.973C125.676 106.804 125.674 107.804 125.305 108.974C125.154 109.452 124.905 110.028 124.559 110.702C123.731 112.297 122.733 113.459 121.564 114.187C120.399 114.904 119.063 115.025 117.557 114.551C116.347 114.169 115.564 113.564 115.21 112.737C114.869 111.902 114.883 110.9 115.252 109.73C115.422 109.191 115.666 108.614 115.983 107.998ZM121.98 109.889C122.291 109.293 122.502 108.817 122.614 108.461C122.775 107.953 122.796 107.529 122.68 107.19C122.563 106.851 122.26 106.605 121.772 106.451C121.07 106.23 120.471 106.337 119.976 106.774C119.49 107.214 119.014 107.891 118.546 108.806C118.236 109.402 118.024 109.877 117.912 110.233C117.752 110.742 117.73 111.166 117.847 111.505C117.964 111.843 118.266 112.09 118.754 112.244C119.456 112.465 120.05 112.356 120.535 111.916C121.031 111.48 121.512 110.804 121.98 109.889ZM127.057 108.436C127.466 107.67 128.016 107.15 128.707 106.876C129.397 106.601 130.119 106.583 130.871 106.82C131.523 107.025 131.987 107.362 132.264 107.83C132.555 108.291 132.601 108.836 132.402 109.467C132.338 109.671 132.255 109.862 132.154 110.043C131.755 110.812 131.21 111.334 130.52 111.608C129.839 111.886 129.123 111.906 128.37 111.668C127.709 111.46 127.234 111.12 126.946 110.649C126.669 110.181 126.63 109.632 126.828 109.001C126.889 108.808 126.966 108.62 127.057 108.436ZM138.209 109.301L127.04 117.59L124.522 116.797L135.691 108.508L138.209 109.301ZM130.111 108.275C129.623 108.121 129.21 108.365 128.873 109.009C128.795 109.185 128.748 109.299 128.732 109.35C128.591 109.798 128.713 110.082 129.1 110.204C129.334 110.278 129.558 110.259 129.772 110.148C129.989 110.026 130.183 109.802 130.353 109.475C130.425 109.319 130.47 109.21 130.489 109.149C130.634 108.691 130.508 108.4 130.111 108.275ZM130.592 116.06C130.991 115.291 131.536 114.769 132.226 114.495C132.917 114.22 133.639 114.202 134.391 114.439C135.042 114.644 135.508 114.976 135.789 115.433C136.07 115.891 136.111 116.435 135.912 117.066C135.845 117.28 135.76 117.477 135.658 117.657C135.259 118.426 134.715 118.948 134.024 119.222C133.344 119.5 132.627 119.52 131.875 119.283C131.223 119.077 130.753 118.744 130.462 118.283C130.184 117.816 130.145 117.266 130.344 116.636C130.408 116.432 130.491 116.24 130.592 116.06ZM133.631 115.894C133.397 115.82 133.171 115.844 132.954 115.966C132.74 116.077 132.548 116.296 132.378 116.623C132.3 116.799 132.252 116.913 132.236 116.964C132.095 117.412 132.223 117.698 132.62 117.823C132.854 117.897 133.074 117.871 133.282 117.747C133.499 117.625 133.691 117.406 133.858 117.089C133.929 116.933 133.975 116.824 133.994 116.763C134.139 116.306 134.017 116.016 133.631 115.894ZM144.113 123.124C143.3 122.868 142.623 122.459 142.085 121.898C141.549 121.326 141.197 120.65 141.029 119.87C140.871 119.094 140.929 118.273 141.202 117.408C141.474 116.544 141.903 115.84 142.488 115.297C143.083 114.758 143.767 114.415 144.541 114.267C145.317 114.109 146.113 114.159 146.926 114.415C147.74 114.672 148.42 115.087 148.966 115.662C149.515 116.227 149.873 116.899 150.041 117.679C150.219 118.462 150.172 119.286 149.899 120.151C149.627 121.015 149.188 121.716 148.583 122.252C147.988 122.791 147.297 123.138 146.51 123.293C145.736 123.44 144.938 123.384 144.113 123.124ZM144.7 121.263C145.087 121.385 145.477 121.407 145.87 121.33C146.277 121.245 146.642 121.047 146.964 120.735C147.286 120.423 147.532 119.997 147.702 119.458C147.955 118.654 147.936 117.971 147.643 117.409C147.364 116.84 146.919 116.46 146.309 116.267C145.699 116.075 145.116 116.132 144.561 116.438C144.019 116.737 143.622 117.288 143.368 118.092C143.115 118.895 143.118 119.578 143.377 120.141C143.649 120.696 144.09 121.07 144.7 121.263ZM156.122 119.395L154.642 118.928L152.53 125.627L150.363 124.944L152.475 118.245L151.513 117.942L152.067 116.187L153.028 116.49L153.163 116.063C153.49 115.025 154.026 114.355 154.77 114.053C155.513 113.751 156.476 113.802 157.656 114.208L157.089 116.009C156.573 115.835 156.185 115.808 155.924 115.926C155.662 116.045 155.456 116.344 155.306 116.822L155.195 117.173L156.675 117.64L156.122 119.395ZM161.382 121.053L159.902 120.586L157.79 127.285L155.623 126.602L157.735 119.903L156.774 119.6L157.327 117.845L158.288 118.148L158.423 117.721C158.75 116.684 159.286 116.014 160.03 115.711C160.774 115.409 161.736 115.461 162.917 115.867L162.349 117.667C161.833 117.493 161.445 117.466 161.184 117.585C160.923 117.704 160.717 118.002 160.566 118.481L160.455 118.832L161.935 119.298L161.382 121.053ZM170.279 123.858L168.798 123.391L166.686 130.09L164.52 129.407L166.632 122.708L165.67 122.405L166.224 120.65L167.185 120.953L167.32 120.526C167.647 119.488 168.182 118.818 168.926 118.516C169.67 118.214 170.633 118.266 171.813 118.671L171.246 120.472C170.73 120.298 170.342 120.271 170.08 120.39C169.819 120.509 169.613 120.807 169.462 121.285L169.352 121.636L170.832 122.103L170.279 123.858ZM173.262 132.314C172.448 132.058 171.771 131.649 171.233 131.087C170.697 130.516 170.345 129.84 170.177 129.06C170.02 128.284 170.077 127.463 170.35 126.598C170.622 125.733 171.051 125.03 171.636 124.487C172.231 123.948 172.915 123.604 173.689 123.457C174.465 123.299 175.261 123.348 176.075 123.605C176.888 123.862 177.568 124.277 178.114 124.852C178.663 125.417 179.021 126.089 179.189 126.869C179.367 127.652 179.32 128.476 179.048 129.34C178.775 130.205 178.336 130.906 177.731 131.442C177.136 131.981 176.445 132.328 175.658 132.483C174.884 132.63 174.086 132.574 173.262 132.314ZM173.849 130.453C174.235 130.574 174.625 130.597 175.019 130.52C175.425 130.435 175.79 130.237 176.112 129.925C176.434 129.613 176.68 129.187 176.85 128.648C177.104 127.844 177.084 127.161 176.791 126.599C176.512 126.03 176.067 125.65 175.457 125.457C174.847 125.265 174.264 125.321 173.709 125.627C173.167 125.926 172.77 126.478 172.517 127.281C172.263 128.085 172.266 128.768 172.525 129.331C172.797 129.886 173.238 130.26 173.849 130.453ZM183.67 127.593C184.086 127.232 184.552 126.994 185.07 126.877C185.598 126.764 186.147 126.797 186.716 126.977L186.009 129.22L185.444 129.042C184.773 128.83 184.215 128.828 183.769 129.034C183.334 129.244 182.993 129.74 182.746 130.523L181.418 134.735L179.282 134.061L181.947 125.608L184.084 126.281L183.67 127.593ZM189.88 132.722C190.15 131.868 190.557 131.163 191.101 130.607C191.655 130.055 192.278 129.692 192.971 129.519C193.673 129.349 194.385 129.378 195.107 129.606C195.738 129.805 196.247 130.105 196.635 130.507C197.033 130.912 197.314 131.353 197.477 131.829L197.857 130.623L200.008 131.302L197.343 139.756L195.191 139.077L195.581 137.841C195.181 138.151 194.696 138.362 194.124 138.472C193.566 138.576 192.971 138.528 192.34 138.329C191.628 138.105 191.035 137.716 190.56 137.164C190.096 136.615 189.795 135.955 189.658 135.185C189.533 134.408 189.608 133.587 189.88 132.722ZM196.524 134.85C196.688 134.332 196.725 133.857 196.637 133.427C196.553 132.986 196.368 132.615 196.083 132.312C195.801 132 195.462 131.781 195.065 131.656C194.668 131.531 194.272 131.512 193.875 131.599C193.478 131.687 193.114 131.885 192.781 132.194C192.463 132.496 192.223 132.902 192.063 133.41C191.902 133.919 191.863 134.399 191.944 134.849C192.039 135.293 192.223 135.67 192.494 135.979C192.776 136.291 193.11 136.509 193.497 136.63C193.893 136.756 194.295 136.776 194.702 136.692C195.112 136.597 195.476 136.399 195.795 136.097C196.118 135.785 196.36 135.369 196.524 134.85ZM82.6129 119.957C82.9968 118.882 83.6174 118.155 84.4749 117.776C85.3323 117.398 86.3358 117.39 87.4854 117.752C88.2484 117.993 88.8577 118.331 89.3135 118.765C89.7795 119.203 90.0776 119.694 90.208 120.238C90.3485 120.786 90.3289 121.344 90.1493 121.914C89.9376 122.585 89.5966 123.082 89.1262 123.403C88.6589 123.715 88.1775 123.876 87.6818 123.887L87.6625 123.948C88.1814 124.325 88.5382 124.789 88.7328 125.343C88.9274 125.896 88.914 126.524 88.6927 127.226C88.4938 127.857 88.1699 128.37 87.721 128.765C87.2854 129.153 86.7445 129.397 86.0984 129.495C85.4625 129.596 84.763 129.527 84 129.286C82.7793 128.901 81.8973 128.293 81.354 127.462C80.821 126.634 80.7249 125.609 81.0659 124.385L83.599 125.184C83.4681 125.635 83.483 126.031 83.6437 126.372C83.8077 126.704 84.1237 126.943 84.5916 127.09C84.9884 127.216 85.3288 127.2 85.613 127.043C85.9106 126.88 86.1187 126.61 86.2374 126.234C86.3914 125.745 86.3443 125.345 86.0963 125.032C85.8617 124.712 85.4036 124.444 84.722 124.229L84.2337 124.075L84.9024 121.954L85.3907 122.108C85.9095 122.272 86.3539 122.317 86.7238 122.243C87.1071 122.163 87.3709 121.894 87.5152 121.436C87.6307 121.07 87.6187 120.753 87.4794 120.485C87.3401 120.217 87.0924 120.028 86.7364 119.915C86.3498 119.793 86.023 119.819 85.7559 119.992C85.499 120.168 85.3008 120.425 85.1612 120.761L82.6129 119.957ZM98.549 129.193L95.8938 128.355L95.0374 131.072L92.5654 130.292L93.4218 127.576L90.7666 126.739L91.5027 124.404L94.1578 125.241L95.019 122.51L97.4911 123.289L96.6299 126.021L99.285 126.858L98.549 129.193ZM103.143 130.523C103.419 129.649 103.824 128.932 104.358 128.373C104.902 127.818 105.515 127.452 106.197 127.275C106.879 127.099 107.571 127.121 108.273 127.343C108.832 127.519 109.304 127.797 109.688 128.175C110.082 128.556 110.349 128.987 110.488 129.467L111.734 125.515L114.344 126.338L110.784 137.63L108.174 136.807L108.559 135.586C108.187 135.916 107.733 136.131 107.198 136.231C106.674 136.334 106.111 136.291 105.511 136.102C104.809 135.88 104.23 135.502 103.772 134.966C103.318 134.42 103.027 133.764 102.9 132.997C102.786 132.223 102.867 131.398 103.143 130.523ZM109.517 132.55C109.722 131.899 109.701 131.327 109.453 130.835C109.216 130.347 108.838 130.021 108.319 129.857C107.8 129.693 107.298 129.742 106.813 130.003C106.342 130.257 106.003 130.71 105.798 131.361C105.593 132.012 105.607 132.587 105.841 133.085C106.089 133.577 106.472 133.905 106.991 134.069C107.51 134.232 108.007 134.182 108.481 133.918C108.966 133.657 109.311 133.201 109.517 132.55ZM113.5 133.789C113.776 132.914 114.18 132.197 114.714 131.639C115.259 131.083 115.872 130.717 116.554 130.541C117.236 130.364 117.928 130.387 118.629 130.608C119.23 130.797 119.715 131.085 120.086 131.47C120.467 131.858 120.717 132.289 120.836 132.763L121.216 131.558L123.825 132.38L121.14 140.895L118.531 140.072L118.911 138.867C118.532 139.184 118.075 139.392 117.54 139.492C117.015 139.595 116.453 139.551 115.853 139.362C115.161 139.144 114.586 138.767 114.129 138.232C113.675 137.686 113.384 137.029 113.257 136.262C113.143 135.488 113.224 134.664 113.5 133.789ZM119.873 135.815C120.079 135.164 120.058 134.592 119.81 134.101C119.573 133.612 119.194 133.286 118.676 133.122C118.157 132.959 117.655 133.007 117.17 133.268C116.699 133.522 116.36 133.975 116.155 134.626C115.95 135.277 115.964 135.852 116.198 136.351C116.446 136.843 116.829 137.17 117.348 137.334C117.867 137.497 118.363 137.447 118.838 137.183C119.323 136.922 119.668 136.466 119.873 135.815ZM134.411 135.718L125.11 146.593L122.303 145.707L125.622 141.989L124.751 132.672L127.666 133.591L127.955 139.537L131.588 134.828L134.411 135.718ZM140.801 139.242C141.216 138.881 141.683 138.642 142.201 138.526C142.729 138.413 143.277 138.446 143.847 138.626L143.14 140.869L142.575 140.691C141.904 140.479 141.345 140.476 140.9 140.683C140.465 140.892 140.124 141.389 139.877 142.172L138.549 146.384L136.413 145.71L139.078 137.256L141.214 137.93L140.801 139.242ZM151.831 145.723C151.735 146.028 151.628 146.296 151.51 146.528L145.33 144.579C145.189 145.206 145.251 145.751 145.519 146.216C145.786 146.68 146.195 146.999 146.744 147.172C147.537 147.422 148.209 147.26 148.76 146.684L151.064 147.41C150.563 148.147 149.884 148.671 149.025 148.982C148.17 149.283 147.239 149.274 146.232 148.957C145.418 148.7 144.741 148.291 144.203 147.73C143.677 147.162 143.336 146.489 143.178 145.712C143.03 144.939 143.093 144.12 143.365 143.255C143.641 142.38 144.061 141.668 144.626 141.119C145.19 140.57 145.849 140.219 146.602 140.065C147.356 139.911 148.149 139.965 148.983 140.228C149.787 140.482 150.45 140.881 150.972 141.426C151.503 141.973 151.841 142.622 151.985 143.372C152.142 144.115 152.091 144.899 151.831 145.723ZM149.811 144.415C149.974 143.862 149.914 143.362 149.63 142.915C149.349 142.457 148.929 142.14 148.369 141.964C147.84 141.797 147.341 141.819 146.872 142.029C146.417 142.232 146.059 142.606 145.798 143.15L149.811 144.415ZM159.389 143.526C160.396 143.843 161.109 144.42 161.527 145.257C161.949 146.083 161.98 147.066 161.621 148.205L160.057 153.165L157.921 152.491L159.393 147.822C159.605 147.15 159.599 146.584 159.375 146.122C159.155 145.65 158.755 145.322 158.175 145.139C157.585 144.953 157.059 144.989 156.598 145.246C156.15 145.496 155.82 145.957 155.609 146.629L154.136 151.298L152 150.625L154.665 142.171L156.802 142.844L156.47 143.897C156.87 143.621 157.321 143.45 157.823 143.384C158.338 143.312 158.86 143.359 159.389 143.526ZM166.688 147.89L165.399 151.98C165.309 152.265 165.309 152.494 165.4 152.668C165.504 152.835 165.718 152.97 166.044 153.073L167.036 153.385L166.468 155.186L165.125 154.763C163.325 154.195 162.7 153.036 163.252 151.286L164.536 147.212L163.529 146.895L164.083 145.14L165.09 145.457L165.749 143.367L167.9 144.045L167.241 146.136L169.133 146.732L168.58 148.487L166.688 147.89ZM168.798 151.24C169.067 150.385 169.474 149.68 170.018 149.125C170.572 148.573 171.196 148.21 171.888 148.037C172.59 147.867 173.302 147.896 174.025 148.123C174.655 148.322 175.165 148.623 175.552 149.024C175.95 149.429 176.231 149.87 176.394 150.347L176.774 149.141L178.925 149.819L176.26 158.273L174.109 157.595L174.498 156.359C174.098 156.669 173.613 156.879 173.041 156.99C172.483 157.093 171.888 157.046 171.258 156.847C170.545 156.622 169.952 156.234 169.477 155.682C169.013 155.133 168.712 154.473 168.575 153.703C168.451 152.926 168.525 152.105 168.798 151.24ZM175.441 153.368C175.605 152.849 175.643 152.375 175.555 151.944C175.47 151.504 175.285 151.132 175 150.83C174.718 150.517 174.379 150.299 173.982 150.173C173.586 150.048 173.189 150.03 172.792 150.117C172.396 150.204 172.031 150.403 171.699 150.712C171.38 151.014 171.14 151.419 170.98 151.928C170.819 152.436 170.78 152.916 170.862 153.367C170.957 153.811 171.14 154.187 171.411 154.496C171.693 154.809 172.027 155.026 172.414 155.148C172.811 155.273 173.212 155.294 173.619 155.209C174.029 155.115 174.394 154.917 174.713 154.615C175.035 154.302 175.278 153.887 175.441 153.368ZM184.043 148.312L180.483 159.605L178.347 158.931L181.907 147.639L184.043 148.312Z" fill="white"/>
</g>
<defs>
<filter id="filter0_d_468_15277" x="-33.0001" y="-42.6" width="341.391" height="341.391" filterUnits="userSpaceOnUse" color-interpolation-filters="sRGB">
<feFlood flood-opacity="0" result="BackgroundImageFix"/>
<feColorMatrix in="SourceAlpha" type="matrix" values="0 0 0 0 0 0 0 0 0 0 0 0 0 0 0 0 0 0 127 0" result="hardAlpha"/>
<feOffset dy="4"/>
<feGaussianBlur stdDeviation="22"/>
<feComposite in2="hardAlpha" operator="out"/>
<feColorMatrix type="matrix" values="0 0 0 0 0.917647 0 0 0 0 0.67451 0 0 0 0 0.239216 0 0 0 0.3 0"/>
<feBlend mode="normal" in2="BackgroundImageFix" result="effect1_dropShadow_468_15277"/>
<feBlend mode="normal" in="SourceGraphic" in2="effect1_dropShadow_468_15277" result="shape"/>
</filter>
</defs>
</svg>
