<svg width="1440" height="483" viewBox="0 0 1440 483" fill="none" xmlns="http://www.w3.org/2000/svg">
<path d="M220.708 208.389C221.569 213.256 226.222 216.506 231.102 215.649C231.519 215.576 231.906 215.446 232.296 215.32C233.171 219.096 234.182 222.821 235.308 226.496C234.904 226.58 234.501 226.669 234.1 226.814C229.442 228.504 227.042 233.64 228.736 238.285C230.431 242.931 235.581 245.326 240.236 243.635C240.641 243.488 241.008 243.291 241.376 243.094C242.898 246.652 244.536 250.149 246.294 253.575C245.901 253.73 245.509 253.891 245.133 254.109C240.843 256.581 239.371 262.055 241.848 266.337C244.325 270.617 249.813 272.085 254.104 269.612C254.492 269.388 254.835 269.122 255.175 268.85C257.291 272.087 259.512 275.247 261.841 278.323C261.467 278.551 261.097 278.788 260.749 279.077C256.954 282.255 256.459 287.899 259.644 291.688C262.829 295.474 268.488 295.967 272.286 292.79C272.637 292.495 272.938 292.166 273.23 291.833C275.87 294.654 278.607 297.384 281.435 300.018C281.101 300.309 280.773 300.613 280.477 300.963C277.292 304.749 277.787 310.396 281.583 313.574C285.378 316.751 291.039 316.257 294.224 312.471C294.514 312.125 294.75 311.753 294.979 311.38C298.062 313.702 301.23 315.918 304.475 318.03C304.205 318.368 303.94 318.715 303.715 319.102C301.238 323.382 302.708 328.856 307 331.327C311.291 333.798 316.779 332.332 319.256 328.05C319.473 327.673 319.631 327.283 319.788 326.89C322.327 328.184 324.904 329.413 327.515 330.581L311.32 367.737C311.101 368.237 311.151 368.813 311.45 369.269C311.75 369.726 312.26 370 312.807 370H339.092C339.81 370 340.443 369.529 340.648 368.842L349.648 338.656C352.45 339.46 355.278 340.195 358.137 340.856C358.011 341.244 357.884 341.633 357.811 342.046C356.951 346.914 360.21 351.555 365.089 352.415C369.969 353.272 374.622 350.022 375.484 345.155C375.559 344.735 375.57 344.32 375.584 343.907C379.399 344.37 383.252 344.711 387.141 344.913C387.082 345.323 387.026 345.735 387.026 346.161C387.026 351.104 391.043 355.112 395.999 355.112C400.954 355.112 404.972 351.104 404.972 346.161C404.972 345.735 404.912 345.325 404.853 344.913C408.744 344.711 412.598 344.37 416.414 343.907C416.428 344.32 416.439 344.734 416.514 345.155C417.376 350.022 422.029 353.272 426.909 352.415C431.788 351.555 435.047 346.914 434.187 342.046C434.114 341.633 433.989 341.242 433.861 340.856C436.72 340.197 439.55 339.46 442.352 338.656L451.352 368.842C451.557 369.529 452.19 370 452.908 370H479.193C479.74 370 480.25 369.724 480.55 369.269C480.851 368.813 480.899 368.237 480.68 367.737L464.485 330.581C467.096 329.413 469.673 328.186 472.212 326.89C472.367 327.283 472.525 327.673 472.743 328.05C475.221 332.332 480.709 333.798 485 331.327C489.29 328.856 490.762 323.382 488.285 319.102C488.06 318.715 487.797 318.368 487.525 318.032C490.77 315.92 493.938 313.706 497.021 311.382C497.25 311.755 497.484 312.126 497.774 312.473C500.959 316.259 506.618 316.753 510.415 313.575C514.211 310.398 514.706 304.753 511.521 300.965C511.225 300.615 510.899 300.313 510.565 300.02C513.393 297.386 516.13 294.656 518.77 291.835C519.064 292.168 519.363 292.497 519.714 292.792C523.51 295.969 529.171 295.475 532.356 291.689C535.541 287.903 535.046 282.257 531.251 279.079C530.905 278.79 530.535 278.551 530.161 278.325C532.488 275.249 534.711 272.087 536.825 268.852C537.165 269.122 537.508 269.39 537.896 269.612C542.187 272.083 547.675 270.617 550.152 266.337C552.629 262.055 551.159 256.582 546.867 254.109C546.491 253.893 546.099 253.73 545.706 253.575C547.462 250.147 549.102 246.652 550.624 243.094C550.99 243.291 551.359 243.488 551.764 243.635C556.421 245.326 561.569 242.931 563.264 238.285C564.958 233.64 562.558 228.504 557.9 226.814C557.501 226.669 557.096 226.58 556.693 226.498C557.82 222.823 558.831 219.098 559.706 215.322C560.096 215.448 560.483 215.578 560.9 215.651C565.779 216.508 570.433 213.258 571.294 208.391C572.154 203.523 568.896 198.881 564.016 198.022C563.596 197.947 563.179 197.932 562.767 197.918C563.231 194.111 563.573 190.27 563.776 186.39C564.187 186.449 564.599 186.508 565.027 186.508C569.982 186.508 574 182.5 574 177.558C574 172.614 569.982 168.607 565.027 168.607C564.599 168.607 564.187 168.663 563.776 168.722C563.573 164.842 563.231 160.999 562.767 157.194C563.181 157.18 563.596 157.169 564.018 157.094C568.898 156.235 572.156 151.593 571.296 146.725C570.435 141.858 565.781 138.607 560.902 139.465C560.487 139.538 560.096 139.662 559.708 139.79C558.833 136.014 557.822 132.289 556.695 128.614C557.1 128.53 557.503 128.445 557.904 128.302C562.561 126.612 564.962 121.476 563.268 116.83C561.573 112.185 556.423 109.79 551.768 111.48C551.365 111.628 550.994 111.821 550.626 112.018C549.104 108.46 547.465 104.965 545.708 101.537C546.101 101.382 546.493 101.225 546.871 101.006C551.163 98.5352 552.633 93.0608 550.156 88.7809C547.678 84.5009 542.19 83.0327 537.9 85.5039C537.512 85.7278 537.165 85.9901 536.827 86.2619C534.711 83.027 532.49 79.8649 530.161 76.7889C530.535 76.5611 530.907 76.3276 531.255 76.0385C535.05 72.8611 535.545 67.2164 532.36 63.4283C529.174 59.6422 523.516 59.1483 519.718 62.3257C519.367 62.6186 519.064 62.9459 518.77 63.279C516.13 60.4576 513.393 57.728 510.565 55.0942C510.899 54.8014 511.229 54.5027 511.524 54.1525C514.71 50.3663 514.215 44.7196 510.419 41.5422C506.624 38.3647 500.963 38.8586 497.777 42.6448C497.488 42.9893 497.248 43.3587 497.021 43.732C493.938 41.4101 490.77 39.1936 487.525 37.0823C487.795 36.7435 488.064 36.4009 488.287 36.0142C490.764 31.7342 489.294 26.2598 485.001 23.7887C480.711 21.3176 475.223 22.7838 472.745 27.0638C472.529 27.4389 472.365 27.8294 472.21 28.2218C468.773 26.4704 465.269 24.8338 461.702 23.3159C461.9 22.9484 462.097 22.5828 462.245 22.1789C463.94 17.5333 461.539 12.3978 456.882 10.7076C452.225 9.01742 447.076 11.412 445.382 16.0576C445.236 16.4557 445.148 16.8596 445.063 17.2615C441.379 16.138 437.645 15.1292 433.859 14.2564C433.986 13.8678 434.116 13.4812 434.189 13.0658C435.051 8.1982 431.79 3.55643 426.911 2.69699C422.031 1.83947 417.377 5.08965 416.516 9.95726C416.441 10.3765 416.426 10.7918 416.412 11.2053C412.598 10.7421 408.744 10.4014 404.855 10.1985C404.914 9.78883 404.974 9.37728 404.974 8.95043C404.974 4.00816 400.956 0 396.001 0C391.044 0 387.028 4.00816 387.028 8.95043C387.028 9.37728 387.084 9.78883 387.143 10.1985C383.256 10.4014 379.404 10.7421 375.59 11.2053C375.576 10.7918 375.561 10.3784 375.486 9.95726C374.624 5.08965 369.971 1.83947 365.091 2.69699C360.212 3.55643 356.953 8.1982 357.813 13.0658C357.886 13.4793 358.016 13.8678 358.143 14.2564C354.357 15.1292 350.623 16.138 346.939 17.2615C346.854 16.8577 346.766 16.4557 346.62 16.0576C344.926 11.412 339.777 9.01742 335.12 10.7076C330.463 12.3978 328.062 17.5333 329.757 22.1789C329.904 22.5828 330.102 22.9484 330.3 23.3159C326.733 24.8338 323.227 26.4685 319.792 28.2218C319.636 27.8314 319.475 27.4389 319.256 27.0638C316.779 22.7838 311.291 21.3157 307 23.7887C302.708 26.2598 301.238 31.7342 303.715 36.0142C303.94 36.4009 304.207 36.7435 304.479 37.0823C301.234 39.1936 298.066 41.4082 294.982 43.73C294.756 43.3568 294.516 42.9874 294.226 42.6409C291.041 38.8548 285.382 38.3609 281.585 41.5384C277.789 44.7158 277.294 50.3605 280.479 54.1486C280.775 54.4989 281.105 54.7994 281.439 55.0904C278.61 57.7242 275.874 60.4537 273.234 63.2752C272.942 62.9421 272.637 62.6148 272.286 62.3219C268.49 59.1445 262.829 59.6383 259.644 63.4245C256.459 67.2106 256.954 72.8573 260.749 76.0347C261.097 76.3257 261.469 76.5591 261.843 76.7869C259.515 79.8629 257.293 83.0251 255.177 86.2599C254.837 85.99 254.49 85.7259 254.102 85.5019C249.812 83.0308 244.323 84.497 241.846 88.7789C239.369 93.0589 240.839 98.5333 245.131 101.004C245.509 101.223 245.901 101.38 246.294 101.535C244.538 104.963 242.898 108.458 241.376 112.016C241.01 111.819 240.639 111.626 240.234 111.479C235.577 109.788 230.429 112.183 228.734 116.828C227.04 121.474 229.44 126.61 234.098 128.3C234.497 128.445 234.904 128.528 235.307 128.614C234.18 132.289 233.169 136.014 232.294 139.79C231.904 139.664 231.515 139.538 231.098 139.465C226.219 138.607 221.565 141.858 220.704 146.725C219.844 151.593 223.102 156.235 227.982 157.094C228.404 157.169 228.819 157.18 229.233 157.194C228.769 160.999 228.427 164.842 228.224 168.722C227.813 168.663 227.401 168.607 226.973 168.607C222.018 168.607 218 172.614 218 177.558C218 182.5 222.016 186.508 226.973 186.508C227.401 186.508 227.813 186.449 228.224 186.39C228.427 190.27 228.769 194.113 229.233 197.918C228.819 197.93 228.402 197.947 227.982 198.022C223.104 198.877 219.846 203.519 220.708 208.389ZM291.388 304.437L295.666 299.354C301.917 304.487 308.572 309.144 315.568 313.285L312.241 319.033C304.909 314.695 297.936 309.818 291.388 304.437ZM297.751 296.873L385.322 192.767L317.192 310.48C310.359 306.434 303.857 301.884 297.751 296.873ZM368.989 339.688L370.144 333.149C378.042 334.451 386.136 335.167 394.378 335.249V341.889C385.741 341.805 377.263 341.055 368.989 339.688ZM397.624 341.887V335.247C405.868 335.163 413.96 334.449 421.858 333.147L423.013 339.686C414.739 341.055 406.261 341.805 397.624 341.887ZM479.761 319.033L476.434 313.285C483.43 309.142 490.086 304.485 496.336 299.354L500.614 304.437C494.068 309.818 487.093 314.695 479.761 319.033ZM474.81 310.48L406.68 192.767L494.25 296.873C488.145 301.884 481.643 306.434 474.81 310.48ZM231.26 179.175H237.916C238.001 187.398 238.716 195.47 240.021 203.349L233.466 204.501C232.096 196.247 231.344 187.791 231.26 179.175ZM243.778 149.139C245.248 141.285 247.317 133.638 249.934 126.248L378.021 172.752L243.778 149.139ZM377.461 175.939H241.161C241.244 167.907 241.944 160.023 243.218 152.326L377.461 175.939ZM251.047 123.206C253.86 115.762 257.234 108.592 261.118 101.745L379.126 169.708L251.047 123.206ZM344.563 31.8529C351.972 29.2421 359.638 27.1786 367.511 25.7124L391.181 159.619L344.563 31.8529ZM388.133 160.723L320.001 43.0065C326.867 39.1323 334.055 35.7692 341.516 32.9612L388.133 160.723ZM370.708 25.1535C378.424 23.8844 386.328 23.1857 394.379 23.1015V159.062L370.708 25.1535ZM397.624 23.1015C405.674 23.1838 413.578 23.8825 421.294 25.1516L397.624 159.052V23.1015ZM424.489 25.7124C432.364 27.1786 440.028 29.2439 447.439 31.8548L400.817 159.628L424.489 25.7124ZM450.488 32.9631C457.951 35.7692 465.139 39.1343 472.003 43.0084L403.87 160.725L450.488 32.9631ZM542.068 126.246C544.685 133.636 546.754 141.283 548.223 149.137L413.977 172.75L542.068 126.246ZM412.88 169.706L530.886 101.745C534.77 108.592 538.142 115.764 540.957 123.206L412.88 169.706ZM548.786 152.326C550.058 160.023 550.758 167.907 550.843 175.939H414.543L548.786 152.326ZM550.841 179.175C550.758 187.205 550.058 195.091 548.784 202.786L414.549 179.175H550.841ZM548.225 205.973C546.755 213.829 544.685 221.474 542.069 228.864L413.979 182.36L548.225 205.973ZM540.957 231.906C538.143 239.35 534.77 246.52 530.886 253.369L412.872 185.404L540.957 231.906ZM249.934 228.864C247.317 221.474 245.248 213.827 243.778 205.973L378.021 182.36L249.934 228.864ZM379.132 185.402L261.116 253.369C257.232 246.52 253.858 239.35 251.045 231.906L379.132 185.402ZM243.218 202.786C241.946 195.091 241.246 187.207 241.161 179.175H377.451L243.218 202.786ZM231.26 175.939C231.344 167.323 232.094 158.865 233.466 150.611L240.021 151.763C238.716 159.642 237.999 167.715 237.916 175.939H231.26ZM234.025 147.422C235.596 138.996 237.816 130.794 240.63 122.868L246.885 125.138C244.204 132.704 242.086 140.531 240.582 148.574L234.025 147.422ZM241.741 119.828C244.755 111.84 248.372 104.149 252.542 96.8068L258.306 100.126C254.329 107.135 250.877 114.478 247.996 122.1L241.741 119.828ZM254.173 94.0064C258.521 86.6906 263.411 79.7347 268.807 73.2037L273.903 77.4703C268.757 83.7065 264.088 90.3447 259.936 97.3255L254.173 94.0064ZM276.388 79.549L380.755 166.906L262.747 98.9429C266.803 92.1267 271.363 85.6417 276.388 79.549ZM278.478 77.076C283.64 71.0752 289.254 65.4764 295.27 60.3255L382.839 164.427L278.478 77.076ZM297.751 58.241C303.857 53.2279 310.359 48.68 317.192 44.6335L385.322 162.344L297.751 58.241ZM295.666 55.7603L291.388 50.6745C297.936 45.2939 304.909 40.4148 312.241 36.0793L315.568 41.8274C308.572 45.9715 301.917 50.6285 295.666 55.7603ZM315.05 34.4542C322.411 30.2948 330.123 26.6848 338.129 23.6796L340.407 29.9197C332.767 32.7928 325.407 36.2362 318.38 40.2042L315.05 34.4542ZM341.176 22.5714C349.122 19.7652 357.343 17.5506 365.792 15.9829L366.949 22.5235C358.886 24.0241 351.039 26.1373 343.454 28.8114L341.176 22.5714ZM394.378 13.2247V19.8648C386.134 19.949 378.042 20.6629 370.144 21.9645L368.989 15.424C377.263 14.0573 385.741 13.3089 394.378 13.2247ZM397.624 13.2247C406.261 13.3089 414.739 14.0573 423.013 15.4259L421.856 21.9665C413.958 20.6649 405.866 19.949 397.624 19.8666V13.2247ZM426.208 15.9829C434.657 17.5506 442.88 19.7652 450.826 22.5714L448.548 28.8114C440.963 26.1373 433.114 24.0241 425.051 22.5235L426.208 15.9829ZM453.875 23.6796C461.881 26.6848 469.593 30.2948 476.954 34.4542L473.626 40.2042C466.599 36.2362 459.238 32.7928 451.599 29.9197L453.875 23.6796ZM500.614 50.6764L496.336 55.7622C490.086 50.6286 483.43 45.9715 476.434 41.8312L479.761 36.0831C487.093 40.4167 494.066 45.2958 500.614 50.6764ZM494.25 58.241L406.68 162.344L474.81 44.6335C481.643 48.6781 488.145 53.2279 494.25 58.241ZM496.732 60.3255C502.745 65.4745 508.36 71.0752 513.524 77.076L409.163 164.429L496.732 60.3255ZM515.614 79.549C520.639 85.6398 525.199 92.1248 529.257 98.9429L411.249 166.906L515.614 79.549ZM518.101 77.4703L523.197 73.2037C528.591 79.7347 533.482 86.6906 537.831 94.0064L532.068 97.3255C527.916 90.3447 523.245 83.7046 518.101 77.4703ZM539.46 96.8068C543.63 104.149 547.249 111.842 550.261 119.828L544.006 122.098C541.125 114.476 537.673 107.135 533.695 100.126L539.46 96.8068ZM551.372 122.868C554.185 130.794 556.406 138.996 557.977 147.422L551.422 148.576C549.918 140.533 547.799 132.706 545.119 125.14L551.372 122.868ZM560.742 175.939H554.086C554.001 167.715 553.285 159.644 551.981 151.763L558.536 150.611C559.908 158.865 560.658 167.321 560.742 175.939ZM560.742 179.175C560.658 187.791 559.908 196.247 558.536 204.501L551.981 203.349C553.285 195.47 554.001 187.398 554.086 179.175H560.742ZM557.977 207.688C556.406 216.116 554.185 224.316 551.372 232.242L545.117 229.972C547.797 222.406 549.916 214.577 551.42 206.536L557.977 207.688ZM550.261 235.284C547.247 243.272 543.63 250.963 539.46 258.307L533.695 254.988C537.673 247.977 541.127 240.636 544.006 233.014L550.261 235.284ZM537.831 261.107C533.484 268.421 528.593 275.379 523.199 281.91L518.102 277.644C523.249 271.407 527.918 264.769 532.068 257.788L537.831 261.107ZM515.616 275.563L411.254 188.212L529.257 256.171C525.2 262.987 520.639 269.47 515.616 275.563ZM513.524 278.036C508.362 284.035 502.747 289.637 496.732 294.786L409.159 190.681L513.524 278.036ZM472.003 312.105C467.864 314.441 463.608 316.596 459.244 318.552L408.948 203.161L472.003 312.105ZM438.604 326.084C433.984 327.405 429.273 328.509 424.489 329.401L402.489 204.947L438.604 326.084ZM421.294 329.96C413.58 331.229 405.674 331.928 397.624 332.012V196.06L421.294 329.96ZM370.708 329.96L394.379 196.05V332.01C386.328 331.928 378.422 331.229 370.708 329.96ZM367.513 329.401C362.729 328.509 358.018 327.405 353.398 326.084L389.511 204.949L367.513 329.401ZM332.758 318.552C328.394 316.596 324.14 314.443 319.999 312.105L383.05 203.171L332.758 318.552ZM295.27 294.786C289.254 289.637 283.64 284.035 278.478 278.036L382.843 190.681L295.27 294.786ZM276.388 275.563C271.363 269.472 266.803 262.987 262.747 256.171L380.75 188.212L276.388 275.563ZM273.901 277.642L268.805 281.908C263.411 275.377 258.519 268.421 254.173 261.105L259.936 257.786C264.088 264.767 268.757 271.407 273.901 277.642ZM252.542 258.307C248.372 250.964 244.753 243.272 241.741 235.284L247.996 233.014C250.877 240.636 254.329 247.978 258.306 254.988L252.542 258.307ZM240.63 232.242C237.818 224.316 235.598 216.116 234.025 207.688L240.58 206.536C242.084 214.579 244.203 222.406 246.883 229.972L240.63 232.242ZM288.909 52.7628L293.186 57.8467C287.027 63.1182 281.28 68.851 275.995 74.9954L270.898 70.7288C276.43 64.2916 282.454 58.2831 288.909 52.7628ZM521.106 70.7288L516.009 74.9954C510.724 68.851 504.975 63.1182 498.817 57.8467L503.095 52.7628C509.548 58.2831 515.571 64.2916 521.106 70.7288ZM503.093 302.349L498.817 297.265C504.977 291.994 510.726 286.259 516.009 280.115L521.106 284.381C515.571 290.822 509.55 296.829 503.093 302.349ZM463.191 327.61L460.537 321.521C465.014 319.517 469.38 317.306 473.624 314.91L476.952 320.658C472.49 323.181 467.9 325.502 463.191 327.61ZM441.427 335.552C436.446 336.978 431.368 338.172 426.208 339.129L425.053 332.59C429.962 331.677 434.791 330.544 439.531 329.189L441.427 335.552ZM350.575 335.552L352.473 329.187C357.21 330.542 362.042 331.675 366.949 332.588L365.794 339.129C360.632 338.172 355.554 336.979 350.575 335.552ZM328.811 327.608C324.102 325.502 319.514 323.179 315.05 320.656L318.378 314.908C322.624 317.304 326.988 319.515 331.465 321.519L328.811 327.608ZM270.896 284.383L275.993 280.117C281.278 286.261 287.027 291.996 293.184 297.267L288.909 302.351C282.454 296.829 276.43 290.822 270.896 284.383Z" fill="#132F2E"/>
<path d="M1437 240.193H1397V263.747H1381.18V299.493H1365.85V251.946H1353.78V212.258H1315.27V328.409H1296.51V239.394H1289.41V186.713H1257.6V263.745H1249.01V217.455H1216.65V366.812H1188.78V347.902H1157.56V242.877H1125.2V263.745H1116.61V186.713H1084.8V239.394H1077.7V328.405H1058.94V212.254H1020.43V251.942H1008.36V299.489H993.028V263.743H977.214V240.189H941.99V322.591H924.537V282.586H900.859V199.878H859.956V352.398H839.706V262.582H806.126V274.491H799.024V300.232H787.031V283.508H741.224V315.769H732.678V254.68H686.871V286.941H670.303V364.914H654.13V223.635H645.387V199.501L630.048 184.161H607.64V254.68H590.176V301.029H561.767V288.602H554.548V336.072H545.274V366.808H535.915V332.442H527.172V311.263H518.962V317.476H513.635V330.79H489.425V363.488H445.169V366.814H415.657V352.354H380.977V366.814H331.296V349.151H311.111V298.374H263.26V325.378H254.539V313.177H231.947V256.749H223.172V245.026H188.49V256.749H170.907V323.84H157.035V304.361H138.803V251.402H118.618V200.623H70.7675V227.628H58.6392V248.816H39.4543V159H0V446.522V483H170.907H614.467H778.666H863.453H1437V472.017V240.193ZM11.2967 253.544H6.68492V245.777H11.2967V253.544ZM11.2967 238.544H6.68492V230.777H11.2967V238.544ZM33.6373 190.981H29.0255V183.215H33.6373V190.981ZM33.6373 175.981H29.0255V168.215H33.6373V175.981ZM77.9544 306.045H73.3426V298.278H77.9544V306.045ZM88.7242 276.044H84.1124V268.278H88.7242V276.044ZM88.7242 261.044H84.1124V253.278H88.7242V261.044ZM99.494 216.043H94.8822V208.277H99.494V216.043ZM110.264 246.044H105.652V238.277H110.264V246.044ZM110.264 231.043H105.652V223.277H110.264V231.043ZM110.264 216.043H105.652V208.277H110.264V216.043ZM122.568 301.282H120.559V258.54H122.568V301.282ZM128.178 301.282H126.169V258.54H128.178V301.282ZM133.787 301.282H131.777V258.54H133.787V301.282ZM216.155 253.291H198.519V250.691H216.155V253.291ZM226.13 288.73H223.172V280.964H226.13V288.73ZM226.13 273.73H223.172V265.964H226.13V273.73ZM281.215 366.814H276.603V366.027H281.215V366.814ZM281.215 358.793H276.603V351.026H281.215V358.793ZM291.985 313.794H287.373V306.028H291.985V313.794ZM302.757 343.793H298.145V336.026H302.757V343.793ZM302.757 328.792H298.145V321.026H302.757V328.792ZM302.757 313.794H298.145V306.028H302.757V313.794ZM315.059 366.814H313.049V356.289H315.059V366.814ZM320.669 366.814H318.66V356.289H320.669V366.814ZM326.279 366.814H324.27V356.289H326.279V366.814ZM408.646 366.814H391.01V365.553H408.646V366.814ZM408.646 360.619H391.01V358.019H408.646V360.619ZM530.676 363.651H514.383V361.285H530.676V363.651ZM530.676 357.276H514.383V354.91H530.676V357.276ZM530.676 350.898H514.383V348.532H530.676V350.898ZM530.676 344.521H514.383V342.155H530.676V344.521ZM609.951 306.84H605.339V299.073H609.951V306.84ZM618.816 213.179H614.204V205.413H618.816V213.179ZM618.816 198.179H614.204V190.411H618.816V198.179ZM647.698 295.591H643.086V287.824H647.698V295.591ZM648.89 261.228H632.596V258.862H648.89V261.228ZM648.89 254.85H632.596V252.486H648.89V254.85ZM648.89 248.473H632.596V246.107H648.89V248.473ZM648.89 242.095H632.596V239.729H648.89V242.095ZM648.89 235.72H632.596V233.354H648.89V235.72ZM682.508 362.87H677.896V355.103H682.508V362.87ZM682.508 347.869H677.896V340.103H682.508V347.869ZM682.508 317.871H677.896V310.104H682.508V317.871ZM696.071 362.87H691.459V355.103H696.071V362.87ZM696.071 347.869H691.459V340.103H696.071V347.869ZM696.071 272.87H691.459V265.103H696.071V272.87ZM706.841 317.871H702.229V310.104H706.841V317.871ZM706.841 287.87H702.229V280.102H706.841V287.87ZM706.841 272.87H702.229V265.103H706.841V272.87ZM736.861 346.697H732.682V338.93H736.861V346.697ZM750.424 301.698H745.813V293.932H750.424V301.698ZM761.194 346.697H756.582V338.93H761.194V346.697ZM761.194 316.698H756.582V308.93H761.194V316.698ZM761.194 301.698H756.582V293.932H761.194V301.698ZM811.549 357.132H806.937V349.365H811.549V357.132ZM811.549 342.132H806.937V334.365H811.549V342.132ZM833.889 294.569H829.277V286.803H833.889V294.569ZM833.889 279.569H829.277V271.803H833.889V279.569ZM887.706 301.261H884.611V296.05H887.706V301.261ZM887.706 291.196H884.611V285.985H887.706V291.196ZM896.956 219.476H893.862V214.265H896.956V219.476ZM896.956 209.413H893.862V204.202H896.956V209.413ZM912.903 314.537H911.554V285.859H912.903V314.537ZM916.666 314.537H915.317V285.859H916.666V314.537ZM920.429 314.537H919.08V285.859H920.429V314.537ZM949.161 310.02H946.067V304.809H949.161V310.02ZM949.161 299.957H946.067V294.746H949.161V299.957ZM949.161 289.891H946.067V284.68H949.161V289.891ZM949.161 279.828H946.067V274.617H949.161V279.828ZM949.161 269.762H946.067V264.552H949.161V269.762ZM949.161 259.699H946.067V254.488H949.161V259.699ZM949.161 249.634H946.067V244.423H949.161V249.634ZM956.387 310.02H953.292V304.809H956.387V310.02ZM956.387 299.957H953.292V294.746H956.387V299.957ZM956.387 289.891H953.292V284.68H956.387V289.891ZM956.387 279.828H953.292V274.617H956.387V279.828ZM956.387 269.762H953.292V264.552H956.387V269.762ZM956.387 259.699H953.292V254.488H956.387V259.699ZM956.387 249.634H953.292V244.423H956.387V249.634ZM990.009 311.531H979.078V309.945H990.009V311.531ZM990.009 307.252H979.078V305.665H990.009V307.252ZM990.009 302.974H979.078V301.388H990.009V302.974ZM990.009 298.694H979.078V297.108H990.009V298.694ZM990.009 294.416H979.078V292.83H990.009V294.416ZM990.009 290.138H979.078V288.552H990.009V290.138ZM990.009 285.859H979.078V284.27H990.009V285.859ZM990.009 281.581H979.078V279.994H990.009V281.581ZM990.009 277.301H979.078V275.713H990.009V277.301ZM990.009 273.023H979.078V271.437H990.009V273.023ZM990.009 268.743H979.078V267.157H990.009V268.743ZM1016.82 311.39H1013.72V306.179H1016.82V311.39ZM1016.82 301.324H1013.72V296.114H1016.82V301.324ZM1034.15 240.683H1031.06V235.473H1034.15V240.683ZM1034.15 230.62H1031.06V225.409H1034.15V230.62ZM1034.15 220.555H1031.06V215.344H1034.15V220.555ZM1041.37 220.555H1038.28V215.344H1041.37V220.555ZM1048.6 260.812H1045.51V255.601H1048.6V260.812ZM1048.6 250.749H1045.51V245.538H1048.6V250.749ZM1055.83 314.89H1052.73V309.679H1055.83V314.89ZM1055.83 304.826H1052.73V299.616H1055.83V304.826ZM1055.83 280.941H1052.73V275.73H1055.83V280.941ZM1055.83 230.62H1052.73V225.409H1055.83V230.62ZM1055.83 220.555H1052.73V215.344H1055.83V220.555ZM1084.57 300.468H1081.48V295.257H1084.57V300.468ZM1084.57 290.403H1081.48V285.192H1084.57V290.403ZM1091.6 225.785H1088.51V220.574H1091.6V225.785ZM1091.6 205.654H1088.51V200.443H1091.6V205.654ZM1091.6 195.591H1088.51V190.38H1091.6V195.591ZM1098.83 255.977H1095.73V250.766H1098.83V255.977ZM1098.83 245.913H1095.73V240.703H1098.83V245.913ZM1098.83 195.591H1095.73V190.38H1098.83V195.591ZM1113.28 255.977H1110.19V250.766H1113.28V255.977ZM1113.28 245.913H1110.19V240.703H1113.28V245.913ZM1113.28 225.785H1110.19V220.574H1113.28V225.785ZM1113.28 205.654H1110.19V200.443H1113.28V205.654ZM1113.28 195.591H1110.19V190.38H1113.28V195.591ZM1131.75 280.544H1119.92V278.799H1131.75V280.544ZM1131.75 275.489H1119.92V273.743H1131.75V275.489ZM1131.75 270.433H1119.92V268.688H1131.75V270.433ZM1254.29 280.544H1242.45V278.799H1254.29V280.544ZM1254.29 275.489H1242.45V273.743H1254.29V275.489ZM1254.29 270.433H1242.45V268.688H1254.29V270.433ZM1264.02 255.977H1260.93V250.766H1264.02V255.977ZM1264.02 245.913H1260.93V240.703H1264.02V245.913ZM1264.02 225.785H1260.93V220.574H1264.02V225.785ZM1264.02 205.654H1260.93V200.443H1264.02V205.654ZM1264.02 195.591H1260.93V190.38H1264.02V195.591ZM1278.47 255.977H1275.38V250.766H1278.47V255.977ZM1278.47 245.913H1275.38V240.703H1278.47V245.913ZM1278.47 195.591H1275.38V190.38H1278.47V195.591ZM1285.7 225.785H1282.6V220.574H1285.7V225.785ZM1285.7 205.654H1282.6V200.443H1285.7V205.654ZM1285.7 195.591H1282.6V190.38H1285.7V195.591ZM1292.73 300.468H1289.63V295.257H1292.73V300.468ZM1292.73 290.403H1289.63V285.192H1292.73V290.403ZM1321.47 314.89H1318.38V309.679H1321.47V314.89ZM1321.47 304.826H1318.38V299.616H1321.47V304.826ZM1321.47 280.941H1318.38V275.73H1321.47V280.941ZM1321.47 230.62H1318.38V225.409H1321.47V230.62ZM1321.47 220.555H1318.38V215.344H1321.47V220.555ZM1328.7 260.812H1325.6V255.601H1328.7V260.812ZM1328.7 250.749H1325.6V245.538H1328.7V250.749ZM1335.92 220.555H1332.83V215.344H1335.92V220.555ZM1343.15 240.683H1340.06V235.473H1343.15V240.683ZM1343.15 230.62H1340.06V225.409H1343.15V230.62ZM1343.15 220.555H1340.06V215.344H1343.15V220.555ZM1360.48 311.39H1357.39V306.179H1360.48V311.39ZM1360.48 301.324H1357.39V296.114H1360.48V301.324ZM1395.13 311.531H1384.2V309.945H1395.13V311.531ZM1395.13 307.252H1384.2V305.665H1395.13V307.252ZM1395.13 302.974H1384.2V301.388H1395.13V302.974ZM1395.13 298.694H1384.2V297.108H1395.13V298.694ZM1395.13 294.416H1384.2V292.83H1395.13V294.416ZM1395.13 290.138H1384.2V288.552H1395.13V290.138ZM1395.13 285.859H1384.2V284.27H1395.13V285.859ZM1395.13 281.581H1384.2V279.994H1395.13V281.581ZM1395.13 277.301H1384.2V275.713H1395.13V277.301ZM1395.13 273.023H1384.2V271.437H1395.13V273.023ZM1395.13 268.743H1384.2V267.157H1395.13V268.743ZM1420.91 310.02H1417.82V304.809H1420.91V310.02ZM1420.91 299.957H1417.82V294.746H1420.91V299.957ZM1420.91 289.891H1417.82V284.68H1420.91V289.891ZM1420.91 279.828H1417.82V274.617H1420.91V279.828ZM1420.91 269.762H1417.82V264.552H1420.91V269.762ZM1420.91 259.699H1417.82V254.488H1420.91V259.699ZM1420.91 249.634H1417.82V244.423H1420.91V249.634ZM1428.14 310.02H1425.04V304.809H1428.14V310.02ZM1428.14 299.957H1425.04V294.746H1428.14V299.957ZM1428.14 289.891H1425.04V284.68H1428.14V289.891ZM1428.14 279.828H1425.04V274.617H1428.14V279.828ZM1428.14 269.762H1425.04V264.552H1428.14V269.762ZM1428.14 259.699H1425.04V254.488H1428.14V259.699ZM1428.14 249.634H1425.04V244.423H1428.14V249.634Z" fill="#132F2E"/>
</svg>
