<svg width="199" height="60" viewBox="0 0 199 60" fill="none" xmlns="http://www.w3.org/2000/svg">
<path fill-rule="evenodd" clip-rule="evenodd" d="M14.2738 25.9527L12.7466 24.4324V20.1532L14.3869 18.8018L16.31 20.3221L16.4796 24.4324L12.1557 28.7718L10.0317 26.6284H4.71493L2 29.5563L4.94118 32.6532H9.86199L11.9902 30.5655L13.1425 31.7523L14.1606 30.795L12.9754 29.599L17.6109 25.0518V19.9842L14.6697 17L11.4457 19.8153V25.0518L13.3688 26.8536L14.2738 25.9527ZM3.92308 29.7815L5.22398 31.4144H9.46606L11.2195 29.7815L9.35294 27.8108L5.39366 27.8671L3.92308 29.7815Z" fill="#E8B040"/>
<rect width="0.273304" height="1.1814" transform="matrix(0.716554 -0.697532 0.700759 0.713398 11.0105 29.9578)" fill="#1B4746"/>
<rect width="0.236774" height="1.1814" transform="matrix(0.716553 -0.697532 0.700759 0.713398 12.1511 28.7626)" fill="#1B4746"/>
<path fill-rule="evenodd" clip-rule="evenodd" d="M14.7262 33.0473L16.2534 34.5676V38.8468L14.6131 40.1982L12.69 38.6779L12.5204 34.5676L16.8443 30.2282L18.9683 32.3716H24.2851L27 29.4437L24.0588 26.3468H19.138L17.0098 28.4345L15.8575 27.2477L14.8394 28.205L16.0246 29.401L11.3891 33.9482V39.0158L14.3303 42L17.5543 39.1847V33.9482L15.6312 32.1464L14.7262 33.0473ZM25.0769 29.2185L23.776 27.5856H19.5339L17.7805 29.2185L19.6471 31.1892L23.6063 31.1329L25.0769 29.2185Z" fill="#5D8B8A"/>
<rect width="0.238874" height="1.28514" transform="matrix(0.716554 -0.697532 0.700759 0.713398 16.9615 28.3924)" fill="#1B4746"/>
<rect width="0.26103" height="1.19463" transform="matrix(0.716553 -0.697532 0.700759 0.713398 15.82 29.5642)" fill="#1B4746"/>
<path fill-rule="evenodd" clip-rule="evenodd" d="M7.89843 22.0676L6.29865 23.6601L7.89843 25.2527L9.49822 23.6601L7.89843 22.0676ZM7.89039 22.8639L7.0905 23.6601L7.90664 24.4726L8.70653 23.6763L7.89039 22.8639Z" fill="#5D8B8A"/>
<path fill-rule="evenodd" clip-rule="evenodd" d="M20.455 34.5676L18.8552 36.1601L20.455 37.7527L22.0548 36.1601L20.455 34.5676ZM20.447 35.3639L19.6471 36.1601L20.4632 36.9726L21.2631 36.1763L20.447 35.3639Z" fill="#5D8B8A"/>
<path fill-rule="evenodd" clip-rule="evenodd" d="M20.2287 22.0676L18.629 23.6601L20.2287 25.2527L21.8285 23.6601L20.2287 22.0676ZM20.2207 22.8639L19.4208 23.6601L20.237 24.4726L21.0368 23.6763L20.2207 22.8639Z" fill="#E8B040"/>
<path fill-rule="evenodd" clip-rule="evenodd" d="M8.12468 34.5676L6.52489 36.1601L8.12468 37.7527L9.72446 36.1601L8.12468 34.5676ZM8.11664 35.3639L7.31674 36.1601L8.13288 36.9726L8.93277 36.1763L8.11664 35.3639Z" fill="#E8B040"/>
<path d="M44.8169 24.376V35.544H42.4432V30.792H37.3737V35.544H35V24.376H37.3737V28.968H42.4432V24.376H44.8169Z" fill="white"/>
<path d="M46.5429 31.08C46.5429 30.184 46.7294 29.3893 47.1024 28.696C47.4867 28.0027 48.001 27.4693 48.6453 27.096C49.3009 26.7227 50.03 26.536 50.8325 26.536C51.5333 26.536 52.1437 26.6693 52.6636 26.936C53.1949 27.2027 53.6188 27.5387 53.9353 27.944V26.68H56.3259V35.544H53.9353V34.248C53.6301 34.664 53.2062 35.0107 52.6636 35.288C52.1324 35.5547 51.5164 35.688 50.8155 35.688C50.0243 35.688 49.3009 35.496 48.6453 35.112C48.001 34.728 47.4867 34.1893 47.1024 33.496C46.7294 32.792 46.5429 31.9867 46.5429 31.08ZM53.9353 31.112C53.9353 30.568 53.8222 30.104 53.5962 29.72C53.3701 29.3253 53.0649 29.0267 52.6806 28.824C52.2963 28.6107 51.8837 28.504 51.4429 28.504C51.0021 28.504 50.5951 28.6053 50.2221 28.808C49.8491 29.0107 49.5439 29.3093 49.3066 29.704C49.0805 30.088 48.9675 30.5467 48.9675 31.08C48.9675 31.6133 49.0805 32.0827 49.3066 32.488C49.5439 32.8827 49.8491 33.1867 50.2221 33.4C50.6064 33.6133 51.0134 33.72 51.4429 33.72C51.8837 33.72 52.2963 33.6187 52.6806 33.416C53.0649 33.2027 53.3701 32.904 53.5962 32.52C53.8222 32.1253 53.9353 31.656 53.9353 31.112Z" fill="white"/>
<path d="M61.0179 23.704V35.544H58.6442V23.704H61.0179Z" fill="white"/>
<path d="M62.7528 31.08C62.7528 30.184 62.9393 29.3893 63.3123 28.696C63.6966 28.0027 64.2109 27.4693 64.8552 27.096C65.5108 26.7227 66.2399 26.536 67.0424 26.536C67.7432 26.536 68.3536 26.6693 68.8735 26.936C69.4048 27.2027 69.8287 27.5387 70.1451 27.944V26.68H72.5358V35.544H70.1451V34.248C69.84 34.664 69.4161 35.0107 68.8735 35.288C68.3423 35.5547 67.7262 35.688 67.0254 35.688C66.2342 35.688 65.5108 35.496 64.8552 35.112C64.2109 34.728 63.6966 34.1893 63.3123 33.496C62.9393 32.792 62.7528 31.9867 62.7528 31.08ZM70.1451 31.112C70.1451 30.568 70.0321 30.104 69.806 29.72C69.58 29.3253 69.2748 29.0267 68.8905 28.824C68.5062 28.6107 68.0936 28.504 67.6528 28.504C67.2119 28.504 66.805 28.6053 66.432 28.808C66.059 29.0107 65.7538 29.3093 65.5164 29.704C65.2904 30.088 65.1773 30.5467 65.1773 31.08C65.1773 31.6133 65.2904 32.0827 65.5164 32.488C65.7538 32.8827 66.059 33.1867 66.432 33.4C66.8163 33.6133 67.2232 33.72 67.6528 33.72C68.0936 33.72 68.5062 33.6187 68.8905 33.416C69.2748 33.2027 69.58 32.904 69.806 32.52C70.0321 32.1253 70.1451 31.656 70.1451 31.112Z" fill="white"/>
<path d="M77.2278 23.704V35.544H74.8541V23.704H77.2278Z" fill="white"/>
<path d="M84.863 26.552C85.5751 26.552 86.2081 26.7013 86.762 27C87.3158 27.288 87.7453 27.72 88.0505 28.296C88.367 28.8613 88.5253 29.544 88.5253 30.344V35.544H86.1516V30.648C86.1516 29.944 85.9651 29.4053 85.5921 29.032C85.219 28.648 84.7104 28.456 84.0661 28.456C83.4105 28.456 82.8906 28.648 82.5063 29.032C82.1332 29.4053 81.9467 29.944 81.9467 30.648V35.544H79.573V23.704H81.9467V27.784C82.2519 27.4 82.6588 27.1013 83.1675 26.888C83.6761 26.664 84.2413 26.552 84.863 26.552Z" fill="white"/>
<path d="M94.9535 35.688C94.0492 35.688 93.2354 35.5013 92.5119 35.128C91.7885 34.744 91.2177 34.2053 90.7995 33.512C90.3926 32.8187 90.1891 32.0187 90.1891 31.112C90.1891 30.2053 90.3982 29.4053 90.8164 28.712C91.246 28.0187 91.8281 27.4853 92.5628 27.112C93.2975 26.728 94.117 26.536 95.0213 26.536C95.9255 26.536 96.745 26.728 97.4797 27.112C98.2145 27.4853 98.7909 28.0187 99.2092 28.712C99.6387 29.4053 99.8534 30.2053 99.8534 31.112C99.8534 32.0187 99.633 32.8187 99.1922 33.512C98.7627 34.2053 98.1749 34.744 97.4289 35.128C96.6942 35.5013 95.869 35.688 94.9535 35.688ZM94.9535 33.736C95.383 33.736 95.7842 33.64 96.1573 33.448C96.5416 33.2453 96.8468 32.9467 97.0728 32.552C97.2989 32.1573 97.4119 31.6773 97.4119 31.112C97.4119 30.2693 97.1746 29.624 96.6998 29.176C96.2364 28.7173 95.6656 28.488 94.9874 28.488C94.3092 28.488 93.7383 28.7173 93.2749 29.176C92.8228 29.624 92.5967 30.2693 92.5967 31.112C92.5967 31.9547 92.8171 32.6053 93.258 33.064C93.7101 33.512 94.2753 33.736 94.9535 33.736Z" fill="white"/>
<path d="M103.968 23.704V35.544H101.595V23.704H103.968Z" fill="white"/>
<path d="M107.517 25.624C107.099 25.624 106.749 25.5013 106.466 25.256C106.195 25 106.059 24.6853 106.059 24.312C106.059 23.9387 106.195 23.6293 106.466 23.384C106.749 23.128 107.099 23 107.517 23C107.936 23 108.28 23.128 108.552 23.384C108.834 23.6293 108.975 23.9387 108.975 24.312C108.975 24.6853 108.834 25 108.552 25.256C108.28 25.5013 107.936 25.624 107.517 25.624ZM108.687 26.68V35.544H106.314V26.68H108.687Z" fill="white"/>
<path d="M110.422 31.08C110.422 30.184 110.609 29.3893 110.982 28.696C111.366 28.0027 111.886 27.4693 112.541 27.096C113.197 26.7227 113.926 26.536 114.729 26.536C115.339 26.536 115.921 26.664 116.475 26.92C117.029 27.1653 117.47 27.496 117.798 27.912V23.704H120.205V35.544H117.798V34.232C117.504 34.6693 117.091 35.0213 116.56 35.288C116.029 35.5547 115.412 35.688 114.712 35.688C113.92 35.688 113.197 35.496 112.541 35.112C111.886 34.728 111.366 34.1893 110.982 33.496C110.609 32.792 110.422 31.9867 110.422 31.08ZM117.814 31.112C117.814 30.568 117.701 30.104 117.475 29.72C117.249 29.3253 116.944 29.0267 116.56 28.824C116.175 28.6107 115.763 28.504 115.322 28.504C114.881 28.504 114.474 28.6053 114.101 28.808C113.728 29.0107 113.423 29.3093 113.186 29.704C112.96 30.088 112.847 30.5467 112.847 31.08C112.847 31.6133 112.96 32.0827 113.186 32.488C113.423 32.8827 113.728 33.1867 114.101 33.4C114.486 33.6133 114.893 33.72 115.322 33.72C115.763 33.72 116.175 33.6187 116.56 33.416C116.944 33.2027 117.249 32.904 117.475 32.52C117.701 32.1253 117.814 31.656 117.814 31.112Z" fill="white"/>
<path d="M121.913 31.08C121.913 30.184 122.1 29.3893 122.473 28.696C122.857 28.0027 123.371 27.4693 124.015 27.096C124.671 26.7227 125.4 26.536 126.203 26.536C126.903 26.536 127.514 26.6693 128.034 26.936C128.565 27.2027 128.989 27.5387 129.305 27.944V26.68H131.696V35.544H129.305V34.248C129 34.664 128.576 35.0107 128.034 35.288C127.503 35.5547 126.887 35.688 126.186 35.688C125.394 35.688 124.671 35.496 124.015 35.112C123.371 34.728 122.857 34.1893 122.473 33.496C122.1 32.792 121.913 31.9867 121.913 31.08ZM129.305 31.112C129.305 30.568 129.192 30.104 128.966 29.72C128.74 29.3253 128.435 29.0267 128.051 28.824C127.666 28.6107 127.254 28.504 126.813 28.504C126.372 28.504 125.965 28.6053 125.592 28.808C125.219 29.0107 124.914 29.3093 124.677 29.704C124.451 30.088 124.338 30.5467 124.338 31.08C124.338 31.6133 124.451 32.0827 124.677 32.488C124.914 32.8827 125.219 33.1867 125.592 33.4C125.977 33.6133 126.384 33.72 126.813 33.72C127.254 33.72 127.666 33.6187 128.051 33.416C128.435 33.2027 128.74 32.904 128.966 32.52C129.192 32.1253 129.305 31.656 129.305 31.112Z" fill="white"/>
<path d="M143.001 26.68L137.185 39.736H134.659L136.693 35.32L132.929 26.68H135.591L138.016 32.872L140.474 26.68H143.001Z" fill="white"/>
<path d="M143.67 31.112C143.67 30.1947 143.868 29.3947 144.263 28.712C144.659 28.0187 145.207 27.4853 145.908 27.112C146.609 26.728 147.411 26.536 148.315 26.536C149.48 26.536 150.44 26.8133 151.198 27.368C151.966 27.912 152.481 28.68 152.741 29.672H150.18C150.045 29.288 149.813 28.9893 149.485 28.776C149.169 28.552 148.773 28.44 148.298 28.44C147.62 28.44 147.083 28.6747 146.688 29.144C146.292 29.6027 146.094 30.2587 146.094 31.112C146.094 31.9547 146.292 32.6107 146.688 33.08C147.083 33.5387 147.62 33.768 148.298 33.768C149.259 33.768 149.887 33.3627 150.18 32.552H152.741C152.481 33.512 151.966 34.2747 151.198 34.84C150.429 35.4053 149.468 35.688 148.315 35.688C147.411 35.688 146.609 35.5013 145.908 35.128C145.207 34.744 144.659 34.2107 144.263 33.528C143.868 32.8347 143.67 32.0293 143.67 31.112Z" fill="#E8B040"/>
<path d="M159.77 26.552C160.482 26.552 161.115 26.7013 161.668 27C162.222 27.288 162.652 27.72 162.957 28.296C163.274 28.8613 163.432 29.544 163.432 30.344V35.544H161.058V30.648C161.058 29.944 160.872 29.4053 160.499 29.032C160.126 28.648 159.617 28.456 158.973 28.456C158.317 28.456 157.797 28.648 157.413 29.032C157.04 29.4053 156.853 29.944 156.853 30.648V35.544H154.48V23.704H156.853V27.784C157.158 27.4 157.565 27.1013 158.074 26.888C158.583 26.664 159.148 26.552 159.77 26.552Z" fill="#E8B040"/>
<path d="M174.421 30.92C174.421 31.24 174.398 31.528 174.353 31.784H167.486C167.543 32.424 167.78 32.9253 168.198 33.288C168.617 33.6507 169.131 33.832 169.741 33.832C170.623 33.832 171.25 33.4747 171.623 32.76H174.184C173.912 33.6133 173.392 34.3173 172.624 34.872C171.855 35.416 170.911 35.688 169.792 35.688C168.888 35.688 168.074 35.5013 167.351 35.128C166.639 34.744 166.079 34.2053 165.672 33.512C165.277 32.8187 165.079 32.0187 165.079 31.112C165.079 30.1947 165.277 29.3893 165.672 28.696C166.068 28.0027 166.622 27.4693 167.334 27.096C168.046 26.7227 168.865 26.536 169.792 26.536C170.685 26.536 171.482 26.7173 172.183 27.08C172.895 27.4427 173.443 27.96 173.827 28.632C174.223 29.2933 174.421 30.056 174.421 30.92ZM171.962 30.28C171.951 29.704 171.731 29.2453 171.301 28.904C170.872 28.552 170.346 28.376 169.724 28.376C169.137 28.376 168.639 28.5467 168.232 28.888C167.837 29.2187 167.594 29.6827 167.503 30.28H171.962Z" fill="#E8B040"/>
<path d="M175.543 31.112C175.543 30.1947 175.741 29.3947 176.137 28.712C176.532 28.0187 177.08 27.4853 177.781 27.112C178.482 26.728 179.285 26.536 180.189 26.536C181.353 26.536 182.314 26.8133 183.071 27.368C183.84 27.912 184.354 28.68 184.614 29.672H182.054C181.918 29.288 181.686 28.9893 181.359 28.776C181.042 28.552 180.647 28.44 180.172 28.44C179.494 28.44 178.957 28.6747 178.561 29.144C178.165 29.6027 177.968 30.2587 177.968 31.112C177.968 31.9547 178.165 32.6107 178.561 33.08C178.957 33.5387 179.494 33.768 180.172 33.768C181.133 33.768 181.76 33.3627 182.054 32.552H184.614C184.354 33.512 183.84 34.2747 183.071 34.84C182.302 35.4053 181.342 35.688 180.189 35.688C179.285 35.688 178.482 35.5013 177.781 35.128C177.08 34.744 176.532 34.2107 176.137 33.528C175.741 32.8347 175.543 32.0293 175.543 31.112Z" fill="#E8B040"/>
<path d="M191.914 35.544L188.727 31.768V35.544H186.353V23.704H188.727V30.44L191.88 26.68H194.966L190.829 31.128L195 35.544H191.914Z" fill="#E8B040"/>
</svg>
