<svg width="20" height="21" viewBox="0 0 20 21" fill="none" xmlns="http://www.w3.org/2000/svg">
<path fill-rule="evenodd" clip-rule="evenodd" d="M3.69153 7.59328C3.74497 7.53093 3.81017 7.47972 3.88341 7.44258C3.95665 7.40544 4.03649 7.38309 4.11837 7.37682C4.20025 7.37055 4.28257 7.38048 4.36061 7.40604C4.43865 7.4316 4.51089 7.47229 4.57319 7.52578L9.99986 12.1766L15.4265 7.52578C15.553 7.42422 15.7141 7.37584 15.8756 7.39086C16.0372 7.40589 16.1866 7.48315 16.2922 7.6063C16.3978 7.72945 16.4514 7.88885 16.4416 8.05079C16.4319 8.21274 16.3595 8.36454 16.2399 8.47411L10.4065 13.4741C10.2933 13.5712 10.149 13.6245 9.99986 13.6245C9.8507 13.6245 9.70646 13.5712 9.59319 13.4741L3.75986 8.47411C3.63418 8.36621 3.55648 8.21283 3.54382 8.04767C3.53116 7.8825 3.58459 7.71907 3.69236 7.59328" fill="#ADADAD"/>
</svg>
