<svg width="16" height="17" viewBox="0 0 16 17" fill="none" xmlns="http://www.w3.org/2000/svg">
<path fill-rule="evenodd" clip-rule="evenodd" d="M8.00004 1.33301C6.62976 1.33301 5.3156 1.87735 4.34666 2.84629C3.37772 3.81523 2.83338 5.12939 2.83338 6.49967V6.96901C2.83334 7.4336 2.69578 7.88779 2.43804 8.27434L1.67338 9.42301C0.784043 10.7563 1.46271 12.5683 3.00871 12.9897C3.51226 13.127 4.01982 13.2432 4.53138 13.3383L4.53271 13.3417C5.04471 14.7097 6.41471 15.6663 8.00004 15.6663C9.58538 15.6663 10.9554 14.7097 11.468 13.3417L11.4694 13.3383C11.9814 13.2427 12.4894 13.1264 12.992 12.9897C14.538 12.5683 15.2167 10.7563 14.3274 9.42301L13.562 8.27434C13.3043 7.88779 13.1667 7.4336 13.1667 6.96901V6.49967C13.1667 5.12939 12.6224 3.81523 11.6534 2.84629C10.6845 1.87735 9.37033 1.33301 8.00004 1.33301ZM10.2507 13.5243C8.75535 13.7028 7.24407 13.7028 5.74871 13.5243C6.22271 14.205 7.04738 14.6663 8.00004 14.6663C8.95271 14.6663 9.77671 14.205 10.2507 13.5243ZM3.83338 6.49967C3.83338 5.39461 4.27236 4.3348 5.05376 3.5534C5.83517 2.77199 6.89497 2.33301 8.00004 2.33301C9.10511 2.33301 10.1649 2.77199 10.9463 3.5534C11.7277 4.3348 12.1667 5.39461 12.1667 6.49967V6.96901C12.1667 7.63101 12.3627 8.27834 12.73 8.82901L13.4954 9.97767C13.614 10.1553 13.6886 10.3585 13.7132 10.5707C13.7377 10.7828 13.7115 10.9978 13.6366 11.1978C13.5617 11.3978 13.4403 11.5771 13.2824 11.7209C13.1246 11.8648 12.9348 11.969 12.7287 12.025C9.63258 12.8694 6.36684 12.8694 3.27071 12.025C3.06473 11.9689 2.87503 11.8647 2.71726 11.7209C2.55948 11.5771 2.43815 11.3979 2.36327 11.198C2.28838 10.9981 2.2621 10.7833 2.28657 10.5712C2.31105 10.3591 2.38559 10.1559 2.50404 9.97834L3.27071 8.82901C3.63774 8.27813 3.83351 7.63095 3.83338 6.96901V6.49967Z" fill="#222222"/>
</svg>
