<svg width="16" height="17" viewBox="0 0 16 17" fill="none" xmlns="http://www.w3.org/2000/svg">
<path d="M6.66683 11.167H4.00016M9.3335 11.167H8.3335M1.3335 7.16699H14.6668M1.3335 8.50033C1.3335 5.98633 1.3335 4.72899 2.11483 3.94833C2.89616 3.16766 4.15283 3.16699 6.66683 3.16699H9.3335C11.8475 3.16699 13.1048 3.16699 13.8855 3.94833C14.6662 4.72966 14.6668 5.98633 14.6668 8.50033C14.6668 11.0143 14.6668 12.2717 13.8855 13.0523C13.1042 13.833 11.8475 13.8337 9.3335 13.8337H6.66683C4.15283 13.8337 2.8955 13.8337 2.11483 13.0523C1.33416 12.271 1.3335 11.0143 1.3335 8.50033Z" stroke="#222222" stroke-linecap="round"/>
</svg>
