<svg width="18" height="15" viewBox="0 0 18 15" fill="none" xmlns="http://www.w3.org/2000/svg">
<path d="M2.45625 9.972C1.81875 9.144 1.5 8.72925 1.5 7.5C1.5 6.27 1.81875 5.85675 2.45625 5.028C3.729 3.375 5.8635 1.5 9 1.5C12.1365 1.5 14.271 3.375 15.5438 5.028C16.1813 5.8575 16.5 6.27075 16.5 7.5C16.5 8.73 16.1813 9.14325 15.5438 9.972C14.271 11.625 12.1365 13.5 9 13.5C5.8635 13.5 3.729 11.625 2.45625 9.972Z" stroke="#CB9A38" stroke-width="1.5"/>
<path d="M11.25 7.5C11.25 8.09674 11.0129 8.66903 10.591 9.09099C10.169 9.51295 9.59674 9.75 9 9.75C8.40326 9.75 7.83097 9.51295 7.40901 9.09099C6.98705 8.66903 6.75 8.09674 6.75 7.5C6.75 6.90326 6.98705 6.33097 7.40901 5.90901C7.83097 5.48705 8.40326 5.25 9 5.25C9.59674 5.25 10.169 5.48705 10.591 5.90901C11.0129 6.33097 11.25 6.90326 11.25 7.5Z" stroke="#CB9A38" stroke-width="1.5"/>
</svg>
