<svg width="16" height="15" viewBox="0 0 16 15" fill="none" xmlns="http://www.w3.org/2000/svg">
<path d="M14.6668 14.166H1.3335" stroke="#222222" stroke-linecap="round"/>
<path d="M13.9999 14.1663V3.49967C13.9999 2.24234 13.9999 1.61434 13.6093 1.22367C13.2186 0.833008 12.5906 0.833008 11.3333 0.833008H9.99994C8.7426 0.833008 8.1146 0.833008 7.72394 1.22367C7.40927 1.53767 7.34794 2.00634 7.33594 2.83301" stroke="#222222"/>
<path d="M10 14.1663V5.49967C10 4.24234 10 3.61434 9.60933 3.22367C9.21867 2.83301 8.59067 2.83301 7.33333 2.83301H4.66667C3.40933 2.83301 2.78133 2.83301 2.39067 3.22367C2 3.61434 2 4.24234 2 5.49967V14.1663" stroke="#222222"/>
<path d="M6 14.1663V12.1663M4 4.83301H8M4 6.83301H8M4 8.83301H8" stroke="#222222" stroke-linecap="round"/>
</svg>
