<svg width="20" height="52" viewBox="0 0 20 52" fill="none" xmlns="http://www.w3.org/2000/svg">
<path d="M13.3332 20.3327H6.6665M9.99984 16.166V20.3327M18.3332 12.8327H1.6665M1.6665 10.3327C1.6665 7.19018 1.6665 5.61852 2.64317 4.64268C3.61984 3.66685 5.19067 3.66602 8.33317 3.66602H11.6665C14.809 3.66602 16.3807 3.66602 17.3565 4.64268C18.3323 5.61935 18.3332 7.19018 18.3332 10.3327V11.166C18.3332 13.5227 18.3332 14.7018 17.6007 15.4335C16.869 16.166 15.6898 16.166 13.3332 16.166H6.6665C4.30984 16.166 3.13067 16.166 2.399 15.4335C1.6665 14.7018 1.6665 13.5227 1.6665 11.166V10.3327Z" stroke="#222222" stroke-width="1.2" stroke-linecap="round"/>
</svg>
