<svg width="16" height="17" viewBox="0 0 16 17" fill="none" xmlns="http://www.w3.org/2000/svg">
<path d="M2 7.44434C2 5.31234 2 4.24634 2.252 3.88767C2.50333 3.52967 3.50533 3.18634 5.51 2.50034L5.892 2.36967C6.93667 2.01167 7.45867 1.83301 8 1.83301C8.54133 1.83301 9.06333 2.01167 10.108 2.36967L10.49 2.50034C12.4947 3.18634 13.4967 3.52967 13.748 3.88767C14 4.24634 14 5.31301 14 7.44434V8.49367C14 12.2523 11.174 14.077 9.40067 14.851C8.92 15.061 8.68 15.1663 8 15.1663C7.32 15.1663 7.08 15.061 6.59933 14.851C4.826 14.0763 2 12.253 2 8.49367V7.44434Z" stroke="#222222"/>
</svg>
