<svg width="20" height="20" viewBox="0 0 20 20" fill="none" xmlns="http://www.w3.org/2000/svg">
<path fill-rule="evenodd" clip-rule="evenodd" d="M10.0001 1.0415C8.2872 1.0415 6.64449 1.72193 5.43332 2.93311C4.22215 4.14428 3.54172 5.78698 3.54172 7.49984V8.0865C3.54167 8.66725 3.36973 9.23498 3.04755 9.71817L2.09172 11.154C0.980053 12.8207 1.82839 15.0857 3.76089 15.6123C4.39033 15.784 5.02478 15.9293 5.66422 16.0482L5.66589 16.0523C6.30589 17.7623 8.01839 18.9582 10.0001 18.9582C11.9817 18.9582 13.6942 17.7623 14.3351 16.0523L14.3367 16.0482C14.9768 15.9286 15.6117 15.7832 16.2401 15.6123C18.1726 15.0857 19.0209 12.8207 17.9092 11.154L16.9526 9.71817C16.6304 9.23498 16.4584 8.66725 16.4584 8.0865V7.49984C16.4584 5.78698 15.778 4.14428 14.5668 2.93311C13.3556 1.72193 11.7129 1.0415 10.0001 1.0415ZM12.8134 16.2807C10.9442 16.5037 9.05509 16.5037 7.18589 16.2807C7.77839 17.1315 8.80922 17.7082 10.0001 17.7082C11.1909 17.7082 12.2209 17.1315 12.8134 16.2807ZM4.79172 7.49984C4.79172 6.1185 5.34045 4.79374 6.31721 3.81699C7.29396 2.84024 8.61872 2.2915 10.0001 2.2915C11.3814 2.2915 12.7061 2.84024 13.6829 3.81699C14.6597 4.79374 15.2084 6.1185 15.2084 7.49984V8.0865C15.2084 8.914 15.4534 9.72317 15.9126 10.4115L16.8692 11.8473C17.0175 12.0693 17.1108 12.3234 17.1415 12.5886C17.1722 12.8538 17.1393 13.1225 17.0457 13.3725C16.9521 13.6224 16.8004 13.8466 16.6031 14.0264C16.4057 14.2062 16.1685 14.3365 15.9109 14.4065C12.0407 15.462 7.95855 15.462 4.08839 14.4065C3.83092 14.3364 3.59379 14.2062 3.39657 14.0264C3.19935 13.8467 3.04769 13.6226 2.95408 13.3727C2.86048 13.1229 2.82762 12.8543 2.85822 12.5892C2.88881 12.3242 2.98199 12.0702 3.13005 11.8482L4.08839 10.4115C4.54717 9.72291 4.79189 8.91394 4.79172 8.0865V7.49984Z" fill="#222222"/>
</svg>
