<svg width="20" height="20" viewBox="0 0 20 20" fill="none" xmlns="http://www.w3.org/2000/svg">
<path fill-rule="evenodd" clip-rule="evenodd" d="M15.2084 5.83301C15.2084 6.24339 15.1276 6.64975 14.9705 7.02889C14.8135 7.40804 14.5833 7.75253 14.2931 8.04272C14.0029 8.3329 13.6584 8.56309 13.2793 8.72013C12.9002 8.87718 12.4938 8.95801 12.0834 8.95801C11.673 8.95801 11.2667 8.87718 10.8875 8.72013C10.5084 8.56309 10.1639 8.3329 9.87371 8.04272C9.58352 7.75253 9.35334 7.40804 9.19629 7.02889C9.03925 6.64975 8.95841 6.24339 8.95841 5.83301C8.95841 5.00421 9.28766 4.20935 9.87371 3.6233C10.4598 3.03725 11.2546 2.70801 12.0834 2.70801C12.9122 2.70801 13.7071 3.03725 14.2931 3.6233C14.8792 4.20935 15.2084 5.00421 15.2084 5.83301ZM12.0834 7.70801C12.3296 7.70801 12.5735 7.65951 12.8009 7.56528C13.0284 7.47105 13.2351 7.33294 13.4092 7.15883C13.5834 6.98472 13.7215 6.77802 13.8157 6.55054C13.9099 6.32305 13.9584 6.07924 13.9584 5.83301C13.9584 5.58678 13.9099 5.34296 13.8157 5.11548C13.7215 4.88799 13.5834 4.68129 13.4092 4.50718C13.2351 4.33307 13.0284 4.19496 12.8009 4.10073C12.5735 4.00651 12.3296 3.95801 12.0834 3.95801C11.5861 3.95801 11.1092 4.15555 10.7576 4.50718C10.406 4.85881 10.2084 5.33573 10.2084 5.83301C10.2084 6.33029 10.406 6.8072 10.7576 7.15883C11.1092 7.51046 11.5861 7.70801 12.0834 7.70801ZM4.79175 14.1663C4.79175 14.9951 5.12099 15.79 5.70704 16.3761C6.29309 16.9621 7.08795 17.2913 7.91675 17.2913C8.74555 17.2913 9.54041 16.9621 10.1265 16.3761C10.7125 15.79 11.0417 14.9951 11.0417 14.1663C11.0417 13.3375 10.7125 12.5427 10.1265 11.9566C9.54041 11.3706 8.74555 11.0413 7.91675 11.0413C7.08795 11.0413 6.29309 11.3706 5.70704 11.9566C5.12099 12.5427 4.79175 13.3375 4.79175 14.1663ZM7.91675 16.0413C7.41947 16.0413 6.94255 15.8438 6.59092 15.4922C6.23929 15.1405 6.04175 14.6636 6.04175 14.1663C6.04175 13.6691 6.23929 13.1921 6.59092 12.8405C6.94255 12.4889 7.41947 12.2913 7.91675 12.2913C8.41403 12.2913 8.89094 12.4889 9.24257 12.8405C9.5942 13.1921 9.79175 13.6691 9.79175 14.1663C9.79175 14.6636 9.5942 15.1405 9.24257 15.4922C8.89094 15.8438 8.41403 16.0413 7.91675 16.0413Z" fill="#222222"/>
<path d="M11.8751 14.1322C11.8751 13.9664 11.9409 13.8074 12.0581 13.6902C12.1753 13.573 12.3343 13.5072 12.5001 13.5072H18.3334C18.4992 13.5072 18.6581 13.573 18.7754 13.6902C18.8926 13.8074 18.9584 13.9664 18.9584 14.1322C18.9584 14.2979 18.8926 14.4569 18.7754 14.5741C18.6581 14.6913 18.4992 14.7572 18.3334 14.7572H12.5001C12.3343 14.7572 12.1753 14.6913 12.0581 14.5741C11.9409 14.4569 11.8751 14.2979 11.8751 14.1322ZM7.50008 5.17383C7.66584 5.17383 7.82481 5.23968 7.94202 5.35689C8.05923 5.4741 8.12508 5.63307 8.12508 5.79883C8.12508 5.96459 8.05923 6.12356 7.94202 6.24077C7.82481 6.35798 7.66584 6.42383 7.50008 6.42383H1.66675C1.50099 6.42383 1.34202 6.35798 1.22481 6.24077C1.1076 6.12356 1.04175 5.96459 1.04175 5.79883C1.04175 5.63307 1.1076 5.4741 1.22481 5.35689C1.34202 5.23968 1.50099 5.17383 1.66675 5.17383H7.50008ZM1.04175 14.1322C1.04175 13.9664 1.1076 13.8074 1.22481 13.6902C1.34202 13.573 1.50099 13.5072 1.66675 13.5072H3.33341C3.49917 13.5072 3.65815 13.573 3.77536 13.6902C3.89257 13.8074 3.95841 13.9664 3.95841 14.1322C3.95841 14.2979 3.89257 14.4569 3.77536 14.5741C3.65815 14.6913 3.49917 14.7572 3.33341 14.7572H1.66675C1.50099 14.7572 1.34202 14.6913 1.22481 14.5741C1.1076 14.4569 1.04175 14.2979 1.04175 14.1322ZM18.3334 5.17383C18.4992 5.17383 18.6581 5.23968 18.7754 5.35689C18.8926 5.4741 18.9584 5.63307 18.9584 5.79883C18.9584 5.96459 18.8926 6.12356 18.7754 6.24077C18.6581 6.35798 18.4992 6.42383 18.3334 6.42383H16.6667C16.501 6.42383 16.342 6.35798 16.2248 6.24077C16.1076 6.12356 16.0417 5.96459 16.0417 5.79883C16.0417 5.63307 16.1076 5.4741 16.2248 5.35689C16.342 5.23968 16.501 5.17383 16.6667 5.17383H18.3334Z" fill="#222222"/>
</svg>
