<svg width="20" height="20" viewBox="0 0 20 20" fill="none" xmlns="http://www.w3.org/2000/svg">
<path fill-rule="evenodd" clip-rule="evenodd" d="M10 6.875C9.1712 6.875 8.37634 7.20424 7.79029 7.79029C7.20424 8.37634 6.875 9.1712 6.875 10C6.875 10.8288 7.20424 11.6237 7.79029 12.2097C8.37634 12.7958 9.1712 13.125 10 13.125C10.8288 13.125 11.6237 12.7958 12.2097 12.2097C12.7958 11.6237 13.125 10.8288 13.125 10C13.125 9.1712 12.7958 8.37634 12.2097 7.79029C11.6237 7.20424 10.8288 6.875 10 6.875ZM8.125 10C8.125 9.50272 8.32254 9.02581 8.67417 8.67417C9.02581 8.32254 9.50272 8.125 10 8.125C10.4973 8.125 10.9742 8.32254 11.3258 8.67417C11.6775 9.02581 11.875 9.50272 11.875 10C11.875 10.4973 11.6775 10.9742 11.3258 11.3258C10.9742 11.6775 10.4973 11.875 10 11.875C9.50272 11.875 9.02581 11.6775 8.67417 11.3258C8.32254 10.9742 8.125 10.4973 8.125 10Z" fill="#222222"/>
<path fill-rule="evenodd" clip-rule="evenodd" d="M9.97931 1.0415C9.60847 1.0415 9.2993 1.0415 9.04597 1.05817C8.78698 1.0686 8.53154 1.12211 8.29014 1.2165C8.01201 1.33158 7.75928 1.50031 7.54638 1.71308C7.33347 1.92584 7.16457 2.17846 7.0493 2.4565C6.92847 2.74817 6.89597 3.0565 6.88264 3.3915C6.88115 3.51399 6.84865 3.6341 6.78817 3.74063C6.7277 3.84715 6.64122 3.93662 6.5368 4.00067C6.42916 4.05927 6.30841 4.08963 6.18585 4.0889C6.06329 4.08817 5.94291 4.05638 5.83597 3.9965C5.5393 3.83984 5.25597 3.714 4.94264 3.67234C4.64426 3.63309 4.34107 3.653 4.05038 3.73092C3.7597 3.80885 3.48721 3.94327 3.24847 4.1265C3.0463 4.28857 2.87253 4.48318 2.7343 4.70234C2.59264 4.914 2.43764 5.1815 2.25264 5.50234L2.2318 5.539C2.04597 5.85984 1.8918 6.12734 1.78014 6.35567C1.66347 6.594 1.5718 6.829 1.53847 7.089C1.45897 7.6915 1.62204 8.3009 1.9918 8.78317C2.1843 9.034 2.43514 9.2165 2.71847 9.39484C2.824 9.45741 2.91192 9.54573 2.97401 9.65154C3.0361 9.75736 3.07032 9.87719 3.07347 9.99984C3.07032 10.1225 3.0361 10.2423 2.97401 10.3481C2.91192 10.4539 2.824 10.5423 2.71847 10.6048C2.43514 10.7832 2.18514 10.9657 1.9918 11.2165C1.80857 11.4552 1.67415 11.7277 1.59622 12.0184C1.5183 12.3091 1.49839 12.6123 1.53764 12.9107C1.5718 13.1707 1.66264 13.4057 1.7793 13.644C1.8918 13.8723 2.04597 14.1398 2.2318 14.4607L2.25264 14.4973C2.43764 14.8182 2.59264 15.0857 2.7343 15.2973C2.8818 15.5165 3.04014 15.714 3.24847 15.8723C3.48715 16.0557 3.75961 16.1903 4.0503 16.2684C4.34098 16.3464 4.6442 16.3665 4.94264 16.3273C5.25597 16.2857 5.5393 16.1607 5.83597 16.0032C5.94281 15.9434 6.06304 15.9117 6.18544 15.911C6.30784 15.9103 6.42843 15.9406 6.53597 15.999C6.64123 16.0623 6.72848 16.1515 6.78933 16.2582C6.85018 16.3648 6.8826 16.4854 6.88347 16.6082C6.89597 16.9432 6.92847 17.2515 7.05014 17.5432C7.16521 17.8213 7.33395 18.074 7.54671 18.2869C7.75947 18.4998 8.01209 18.6687 8.29014 18.784C8.5318 18.884 8.7818 18.9232 9.04597 18.9407C9.2993 18.9582 9.60847 18.9582 9.97931 18.9582H10.021C10.3918 18.9582 10.701 18.9582 10.9543 18.9415C11.2193 18.9232 11.4685 18.884 11.7101 18.7832C11.9883 18.6681 12.241 18.4994 12.4539 18.2866C12.6668 18.0738 12.8357 17.8212 12.951 17.5432C13.0718 17.2515 13.1043 16.9432 13.1176 16.6082C13.119 16.4855 13.1514 16.3653 13.2119 16.2586C13.2724 16.1519 13.3589 16.0623 13.4635 15.9982C13.5712 15.9397 13.692 15.9095 13.8145 15.9104C13.9371 15.9112 14.0574 15.9432 14.1643 16.0032C14.461 16.1598 14.7443 16.2857 15.0576 16.3265C15.6601 16.406 16.2695 16.2429 16.7518 15.8732C16.9601 15.7132 17.1185 15.5165 17.266 15.2973C17.4076 15.0857 17.5626 14.8182 17.7476 14.4973L17.7685 14.4607C17.9543 14.1398 18.1085 13.8723 18.2201 13.644C18.3368 13.4057 18.4285 13.1698 18.4618 12.9107C18.5413 12.3082 18.3782 11.6988 18.0085 11.2165C17.816 10.9657 17.5651 10.7832 17.2818 10.6048C17.1763 10.5423 17.0884 10.4539 17.0263 10.3481C16.9642 10.2423 16.93 10.1225 16.9268 9.99984C16.9268 9.76817 17.0535 9.53817 17.2818 9.39484C17.5651 9.2165 17.8151 9.034 18.0085 8.78317C18.1917 8.54443 18.3261 8.27194 18.4041 7.98126C18.482 7.69057 18.5019 7.38738 18.4626 7.089C18.4234 6.83283 18.3417 6.585 18.221 6.35567C18.0786 6.07882 17.9277 5.80646 17.7685 5.539L17.7476 5.50234C17.5954 5.23074 17.4348 4.96394 17.266 4.70234C17.1277 4.48347 16.9539 4.28915 16.7518 4.12734C16.5131 3.94396 16.2407 3.80939 15.95 3.73132C15.6593 3.65325 15.3561 3.63321 15.0576 3.67234C14.7443 3.714 14.461 3.839 14.1643 3.9965C14.0575 4.05623 13.9372 4.08794 13.8148 4.08867C13.6924 4.0894 13.5718 4.05912 13.4643 4.00067C13.3596 3.93682 13.2728 3.84744 13.212 3.7409C13.1512 3.63436 13.1185 3.51415 13.1168 3.3915C13.1043 3.0565 13.0718 2.74817 12.9501 2.4565C12.8351 2.17838 12.6663 1.92565 12.4536 1.71274C12.2408 1.49984 11.9882 1.33093 11.7101 1.21567C11.4685 1.11567 11.2185 1.0765 10.9543 1.059C10.701 1.0415 10.3918 1.0415 10.021 1.0415H9.97931ZM8.76847 2.37067C8.83264 2.344 8.93014 2.31984 9.13097 2.30567C9.3368 2.2915 9.60347 2.2915 10.0001 2.2915C10.3968 2.2915 10.6635 2.2915 10.8693 2.30567C11.0701 2.31984 11.1676 2.344 11.2318 2.37067C11.4876 2.4765 11.6901 2.679 11.796 2.93484C11.8293 3.01484 11.8568 3.14067 11.8676 3.43817C11.8926 4.09817 12.2335 4.734 12.8385 5.08317C13.4435 5.43234 14.1643 5.40984 14.7485 5.1015C15.0118 4.96234 15.1343 4.92317 15.221 4.91234C15.4948 4.87616 15.7717 4.95019 15.991 5.11817C16.046 5.16067 16.116 5.23317 16.2285 5.39984C16.3443 5.5715 16.4776 5.80234 16.676 6.14567C16.8743 6.489 17.0068 6.72067 17.0976 6.90567C17.1868 7.0865 17.2143 7.18317 17.2226 7.25234C17.2588 7.52614 17.1848 7.80311 17.0168 8.02234C16.9635 8.0915 16.8685 8.17817 16.6168 8.3365C16.0568 8.68817 15.6768 9.3015 15.6768 9.99984C15.6768 10.6982 16.0568 11.3115 16.6168 11.6632C16.8685 11.8215 16.9635 11.9082 17.0168 11.9773C17.1851 12.1965 17.2585 12.4732 17.2226 12.7473C17.2143 12.8165 17.186 12.914 17.0976 13.094C17.0068 13.2798 16.8743 13.5107 16.676 13.854C16.4776 14.1973 16.3435 14.4282 16.2285 14.5998C16.116 14.7665 16.046 14.839 15.991 14.8815C15.7717 15.0495 15.4948 15.1235 15.221 15.0873C15.1343 15.0765 15.0126 15.0373 14.7485 14.8982C14.1651 14.5898 13.4435 14.5665 12.8385 14.9157C12.2335 15.2648 11.8926 15.9015 11.8676 16.5615C11.8568 16.859 11.8293 16.9848 11.796 17.0648C11.7436 17.1913 11.6668 17.3063 11.57 17.4031C11.4732 17.4999 11.3583 17.5767 11.2318 17.629C11.1676 17.6557 11.0701 17.6798 10.8693 17.694C10.6635 17.7082 10.3968 17.7082 10.0001 17.7082C9.60347 17.7082 9.3368 17.7082 9.13097 17.694C8.93014 17.6798 8.83264 17.6557 8.76847 17.629C8.64197 17.5767 8.52704 17.4999 8.43023 17.4031C8.33343 17.3063 8.25666 17.1913 8.20431 17.0648C8.17097 16.9848 8.14347 16.859 8.13264 16.5615C8.10764 15.9015 7.7668 15.2657 7.1618 14.9165C6.5568 14.5673 5.83597 14.5898 5.2518 14.8982C4.98847 15.0373 4.86597 15.0765 4.7793 15.0873C4.5055 15.1235 4.22854 15.0495 4.0093 14.8815C3.9543 14.839 3.8843 14.7665 3.7718 14.5998C3.61504 14.3559 3.4658 14.1071 3.3243 13.854C3.12597 13.5107 2.99347 13.279 2.90264 13.094C2.81347 12.9132 2.78597 12.8165 2.77764 12.7473C2.74146 12.4735 2.8155 12.1966 2.98347 11.9773C3.0368 11.9082 3.1318 11.8215 3.38347 11.6632C3.94347 11.3115 4.32347 10.6982 4.32347 9.99984C4.32347 9.3015 3.94347 8.68817 3.38347 8.3365C3.1318 8.17817 3.0368 8.0915 2.98347 8.02234C2.8155 7.80311 2.74146 7.52614 2.77764 7.25234C2.78597 7.18317 2.8143 7.08567 2.90264 6.90567C2.99347 6.71984 3.12597 6.489 3.3243 6.14567C3.52264 5.80234 3.6568 5.5715 3.7718 5.39984C3.8843 5.23317 3.9543 5.16067 4.0093 5.11817C4.22854 4.95019 4.5055 4.87616 4.7793 4.91234C4.86597 4.92317 4.98764 4.96234 5.2518 5.1015C5.83514 5.40984 6.5568 5.43317 7.1618 5.08317C7.7668 4.734 8.10764 4.09817 8.13264 3.43817C8.14347 3.14067 8.17097 3.01484 8.20431 2.93484C8.31014 2.679 8.51264 2.4765 8.76847 2.37067Z" fill="#222222"/>
</svg>
