<svg width="18" height="18" viewBox="0 0 18 18" fill="none" xmlns="http://www.w3.org/2000/svg">
<path d="M4.5 5.5V13.5V5.5ZM4.5 13.5L1.5 10.5L4.5 13.5ZM4.5 13.5L7.5 10.5L4.5 13.5Z" fill="#919191"/>
<path d="M4.5 5.5V13.5M4.5 13.5L1.5 10.5M4.5 13.5L7.5 10.5" stroke="#919191" stroke-width="1.5" stroke-linecap="round" stroke-linejoin="round"/>
<rect width="7.5" height="1.5" rx="0.75" transform="matrix(1 0 0 -1 10 14.25)" fill="#919191"/>
<rect width="6" height="1.5" rx="0.75" transform="matrix(1 0 0 -1 10 11.5)" fill="#919191"/>
<rect width="4" height="1.5" rx="0.75" transform="matrix(1 0 0 -1 10 8.75)" fill="#919191"/>
<rect width="3" height="1.5" rx="0.75" transform="matrix(1 0 0 -1 10 6)" fill="#919191"/>
</svg>
